<mxfile host="65bd71144e">
    <diagram id="PlOxJ4_82GUVX4el05jj" name="Page-1">
        <mxGraphModel dx="2250" dy="1753" grid="1" gridSize="10" guides="1" tooltips="1" connect="1" arrows="1" fold="1" page="1" pageScale="1" pageWidth="850" pageHeight="1100" math="0" shadow="0" adaptiveColors="auto">
            <root>
                <mxCell id="0"/>
                <mxCell id="1" parent="0"/>
                <mxCell id="17" value="&lt;h1&gt;Actor&lt;/h1&gt;" style="rounded=0;whiteSpace=wrap;html=1;fillColor=light-dark(#E51400,#CC0000);strokeColor=#B20000;fontColor=#ffffff;" parent="1" vertex="1">
                    <mxGeometry x="360" y="-560" width="200" height="120" as="geometry"/>
                </mxCell>
                <mxCell id="28" value="&lt;font&gt;id&lt;/font&gt;" style="ellipse;whiteSpace=wrap;html=1;align=center;fontStyle=4;fontSize=22;" parent="1" vertex="1">
                    <mxGeometry x="420" y="-400" width="80" height="40" as="geometry"/>
                </mxCell>
                <mxCell id="31" value="Name" style="ellipse;whiteSpace=wrap;html=1;align=center;fontSize=15;" parent="1" vertex="1">
                    <mxGeometry x="360" y="-640" width="80" height="40" as="geometry"/>
                </mxCell>
                <mxCell id="32" value="Picture" style="ellipse;whiteSpace=wrap;html=1;align=center;fontSize=15;" parent="1" vertex="1">
                    <mxGeometry x="480" y="-640" width="80" height="40" as="geometry"/>
                </mxCell>
                <mxCell id="33" value="" style="endArrow=none;html=1;rounded=0;exitX=0.5;exitY=1;exitDx=0;exitDy=0;entryX=0.5;entryY=0;entryDx=0;entryDy=0;" parent="1" source="31" target="17" edge="1">
                    <mxGeometry relative="1" as="geometry">
                        <mxPoint x="410" y="-580" as="sourcePoint"/>
                        <mxPoint x="570" y="-580" as="targetPoint"/>
                        <Array as="points">
                            <mxPoint x="460" y="-600"/>
                        </Array>
                    </mxGeometry>
                </mxCell>
                <mxCell id="36" value="" style="endArrow=none;html=1;rounded=0;exitX=0.5;exitY=1;exitDx=0;exitDy=0;entryX=0.5;entryY=0;entryDx=0;entryDy=0;" parent="1" source="17" target="28" edge="1">
                    <mxGeometry relative="1" as="geometry">
                        <mxPoint x="550" y="-330" as="sourcePoint"/>
                        <mxPoint x="710" y="-330" as="targetPoint"/>
                        <Array as="points">
                            <mxPoint x="460" y="-410"/>
                        </Array>
                    </mxGeometry>
                </mxCell>
                <mxCell id="40" value="&lt;h1&gt;Movie&lt;/h1&gt;" style="rounded=0;whiteSpace=wrap;html=1;" parent="1" vertex="1">
                    <mxGeometry x="-320" y="-360" width="200" height="120" as="geometry"/>
                </mxCell>
                <mxCell id="41" value="&lt;font&gt;id&lt;/font&gt;" style="ellipse;whiteSpace=wrap;html=1;align=center;fontStyle=4;fontSize=22;" parent="1" vertex="1">
                    <mxGeometry x="-320" y="-200" width="80" height="40" as="geometry"/>
                </mxCell>
                <mxCell id="42" value="" style="endArrow=none;html=1;rounded=0;entryX=0.5;entryY=0;entryDx=0;entryDy=0;exitX=0.5;exitY=1;exitDx=0;exitDy=0;" parent="1" source="40" target="41" edge="1">
                    <mxGeometry relative="1" as="geometry">
                        <mxPoint x="-220" y="-200" as="sourcePoint"/>
                        <mxPoint x="40" y="-200" as="targetPoint"/>
                        <Array as="points">
                            <mxPoint x="-220" y="-220"/>
                            <mxPoint x="-280" y="-220"/>
                        </Array>
                    </mxGeometry>
                </mxCell>
                <mxCell id="44" value="Title" style="ellipse;whiteSpace=wrap;html=1;align=center;fontSize=15;" parent="1" vertex="1">
                    <mxGeometry x="-440" y="-360" width="80" height="40" as="geometry"/>
                </mxCell>
                <mxCell id="45" value="CoverArt" style="ellipse;whiteSpace=wrap;html=1;align=center;fontSize=15;" parent="1" vertex="1">
                    <mxGeometry x="-80" y="-280" width="80" height="40" as="geometry"/>
                </mxCell>
                <mxCell id="47" value="Director_Id" style="ellipse;whiteSpace=wrap;html=1;align=center;fontSize=15;" parent="1" vertex="1">
                    <mxGeometry x="-200" y="-200" width="80" height="40" as="geometry"/>
                </mxCell>
                <mxCell id="48" value="" style="endArrow=none;html=1;rounded=0;exitX=0.5;exitY=1;exitDx=0;exitDy=0;entryX=0.5;entryY=0;entryDx=0;entryDy=0;" parent="1" source="40" target="47" edge="1">
                    <mxGeometry relative="1" as="geometry">
                        <mxPoint x="-120" y="-220" as="sourcePoint"/>
                        <mxPoint x="40" y="-220" as="targetPoint"/>
                        <Array as="points">
                            <mxPoint x="-220" y="-220"/>
                            <mxPoint x="-160" y="-220"/>
                        </Array>
                    </mxGeometry>
                </mxCell>
                <mxCell id="49" value="Release&lt;div&gt;Year&lt;/div&gt;" style="ellipse;whiteSpace=wrap;html=1;align=center;fontSize=15;" parent="1" vertex="1">
                    <mxGeometry x="-440" y="-280" width="80" height="40" as="geometry"/>
                </mxCell>
                <mxCell id="50" value="Description" style="ellipse;whiteSpace=wrap;html=1;align=center;fontSize=15;" parent="1" vertex="1">
                    <mxGeometry x="-80" y="-360" width="80" height="40" as="geometry"/>
                </mxCell>
                <mxCell id="51" value="" style="endArrow=none;html=1;rounded=0;exitX=1;exitY=0.5;exitDx=0;exitDy=0;entryX=0;entryY=0.5;entryDx=0;entryDy=0;" parent="1" source="49" target="40" edge="1">
                    <mxGeometry relative="1" as="geometry">
                        <mxPoint x="-350" y="-260" as="sourcePoint"/>
                        <mxPoint x="-190" y="-260" as="targetPoint"/>
                        <Array as="points">
                            <mxPoint x="-340" y="-260"/>
                            <mxPoint x="-340" y="-300"/>
                        </Array>
                    </mxGeometry>
                </mxCell>
                <mxCell id="52" value="" style="endArrow=none;html=1;rounded=0;exitX=1;exitY=0.5;exitDx=0;exitDy=0;entryX=0;entryY=0.5;entryDx=0;entryDy=0;" parent="1" source="44" target="40" edge="1">
                    <mxGeometry relative="1" as="geometry">
                        <mxPoint x="-290" y="-380" as="sourcePoint"/>
                        <mxPoint x="-130" y="-380" as="targetPoint"/>
                        <Array as="points">
                            <mxPoint x="-340" y="-340"/>
                            <mxPoint x="-340" y="-300"/>
                        </Array>
                    </mxGeometry>
                </mxCell>
                <mxCell id="54" value="" style="endArrow=none;html=1;rounded=0;exitX=0;exitY=0.5;exitDx=0;exitDy=0;entryX=1;entryY=0.5;entryDx=0;entryDy=0;" parent="1" source="50" target="40" edge="1">
                    <mxGeometry relative="1" as="geometry">
                        <mxPoint x="-190" y="-160" as="sourcePoint"/>
                        <mxPoint x="-30" y="-160" as="targetPoint"/>
                        <Array as="points">
                            <mxPoint x="-100" y="-340"/>
                            <mxPoint x="-100" y="-300"/>
                        </Array>
                    </mxGeometry>
                </mxCell>
                <mxCell id="65" value="&lt;h1&gt;Character&lt;/h1&gt;" style="rounded=0;whiteSpace=wrap;html=1;fillColor=#60a917;fontColor=#ffffff;strokeColor=#2D7600;" parent="1" vertex="1">
                    <mxGeometry x="360" y="-200" width="200" height="120" as="geometry"/>
                </mxCell>
                <mxCell id="66" value="&lt;font&gt;id&lt;/font&gt;" style="ellipse;whiteSpace=wrap;html=1;align=center;fontStyle=4;fontSize=22;" parent="1" vertex="1">
                    <mxGeometry x="420" y="-40" width="80" height="40" as="geometry"/>
                </mxCell>
                <mxCell id="67" value="" style="endArrow=none;html=1;rounded=0;exitX=0.5;exitY=0;exitDx=0;exitDy=0;entryX=0.5;entryY=1;entryDx=0;entryDy=0;" parent="1" source="66" target="65" edge="1">
                    <mxGeometry relative="1" as="geometry">
                        <mxPoint x="425" y="-70" as="sourcePoint"/>
                        <mxPoint x="585" y="-70" as="targetPoint"/>
                    </mxGeometry>
                </mxCell>
                <mxCell id="69" value="Name" style="ellipse;whiteSpace=wrap;html=1;align=center;fontSize=15;" parent="1" vertex="1">
                    <mxGeometry x="420" y="-280" width="80" height="40" as="geometry"/>
                </mxCell>
                <mxCell id="70" value="" style="endArrow=none;html=1;rounded=0;exitX=0.5;exitY=1;exitDx=0;exitDy=0;entryX=0.5;entryY=0;entryDx=0;entryDy=0;" parent="1" source="69" target="65" edge="1">
                    <mxGeometry relative="1" as="geometry">
                        <mxPoint x="305" y="-220" as="sourcePoint"/>
                        <mxPoint x="465" y="-220" as="targetPoint"/>
                    </mxGeometry>
                </mxCell>
                <mxCell id="71" value="&lt;h1&gt;Creative&lt;/h1&gt;" style="rounded=0;whiteSpace=wrap;html=1;" parent="1" vertex="1">
                    <mxGeometry x="-760" y="-840" width="200" height="120" as="geometry"/>
                </mxCell>
                <mxCell id="72" value="Author&lt;div&gt;(Book)&lt;/div&gt;" style="ellipse;whiteSpace=wrap;html=1;align=center;fontSize=15;" parent="1" vertex="1">
                    <mxGeometry x="-820" y="-920" width="80" height="40" as="geometry"/>
                </mxCell>
                <mxCell id="73" value="Director&lt;div&gt;(Movie)&lt;/div&gt;" style="ellipse;whiteSpace=wrap;html=1;align=center;fontSize=15;" parent="1" vertex="1">
                    <mxGeometry x="-700" y="-920" width="80" height="40" as="geometry"/>
                </mxCell>
                <mxCell id="74" value="Creator&lt;div&gt;(Show)&lt;/div&gt;" style="ellipse;whiteSpace=wrap;html=1;align=center;fontSize=15;" parent="1" vertex="1">
                    <mxGeometry x="-580" y="-920" width="80" height="40" as="geometry"/>
                </mxCell>
                <mxCell id="75" value="" style="endArrow=none;html=1;rounded=0;exitX=0.5;exitY=0;exitDx=0;exitDy=0;entryX=0.5;entryY=1;entryDx=0;entryDy=0;" parent="1" source="71" target="73" edge="1">
                    <mxGeometry relative="1" as="geometry">
                        <mxPoint x="-680" y="-870" as="sourcePoint"/>
                        <mxPoint x="-520" y="-870" as="targetPoint"/>
                    </mxGeometry>
                </mxCell>
                <mxCell id="76" value="" style="endArrow=none;html=1;rounded=0;exitX=0.5;exitY=0;exitDx=0;exitDy=0;entryX=0.5;entryY=1;entryDx=0;entryDy=0;" parent="1" source="71" target="74" edge="1">
                    <mxGeometry relative="1" as="geometry">
                        <mxPoint x="-460" y="-840" as="sourcePoint"/>
                        <mxPoint x="-300" y="-840" as="targetPoint"/>
                        <Array as="points">
                            <mxPoint x="-660" y="-860"/>
                            <mxPoint x="-540" y="-860"/>
                        </Array>
                    </mxGeometry>
                </mxCell>
                <mxCell id="77" value="" style="endArrow=none;html=1;rounded=0;exitX=0.5;exitY=1;exitDx=0;exitDy=0;entryX=0.5;entryY=0;entryDx=0;entryDy=0;" parent="1" source="72" target="71" edge="1">
                    <mxGeometry relative="1" as="geometry">
                        <mxPoint x="-850" y="-870" as="sourcePoint"/>
                        <mxPoint x="-690" y="-870" as="targetPoint"/>
                        <Array as="points">
                            <mxPoint x="-780" y="-860"/>
                            <mxPoint x="-660" y="-860"/>
                        </Array>
                    </mxGeometry>
                </mxCell>
                <mxCell id="78" value="Picture" style="ellipse;whiteSpace=wrap;html=1;align=center;fontSize=15;" parent="1" vertex="1">
                    <mxGeometry x="-520" y="-800" width="80" height="40" as="geometry"/>
                </mxCell>
                <mxCell id="79" value="Name" style="ellipse;whiteSpace=wrap;html=1;align=center;fontSize=15;" parent="1" vertex="1">
                    <mxGeometry x="-880" y="-800" width="80" height="40" as="geometry"/>
                </mxCell>
                <mxCell id="80" value="" style="endArrow=none;html=1;rounded=0;exitX=1;exitY=0.5;exitDx=0;exitDy=0;entryX=0;entryY=0.5;entryDx=0;entryDy=0;" parent="1" source="79" target="71" edge="1">
                    <mxGeometry relative="1" as="geometry">
                        <mxPoint x="-790" y="-720" as="sourcePoint"/>
                        <mxPoint x="-630" y="-720" as="targetPoint"/>
                    </mxGeometry>
                </mxCell>
                <mxCell id="82" value="&lt;font&gt;id&lt;/font&gt;" style="ellipse;whiteSpace=wrap;html=1;align=center;fontStyle=4;fontSize=22;" parent="1" vertex="1">
                    <mxGeometry x="-700" y="-680" width="80" height="40" as="geometry"/>
                </mxCell>
                <mxCell id="83" value="" style="endArrow=none;html=1;rounded=0;exitX=0.5;exitY=0;exitDx=0;exitDy=0;entryX=0.5;entryY=1;entryDx=0;entryDy=0;" parent="1" source="82" target="71" edge="1">
                    <mxGeometry relative="1" as="geometry">
                        <mxPoint x="-570" y="-700" as="sourcePoint"/>
                        <mxPoint x="-410" y="-700" as="targetPoint"/>
                    </mxGeometry>
                </mxCell>
                <mxCell id="84" value="&lt;h1&gt;Genre&lt;/h1&gt;" style="rounded=0;whiteSpace=wrap;html=1;fillColor=#1ba1e2;fontColor=#ffffff;strokeColor=#006EAF;" parent="1" vertex="1">
                    <mxGeometry x="360" y="160" width="200" height="120" as="geometry"/>
                </mxCell>
                <mxCell id="85" value="&lt;font&gt;id&lt;/font&gt;" style="ellipse;whiteSpace=wrap;html=1;align=center;fontStyle=4;fontSize=22;" parent="1" vertex="1">
                    <mxGeometry x="420" y="320" width="80" height="40" as="geometry"/>
                </mxCell>
                <mxCell id="87" value="Genre" style="ellipse;whiteSpace=wrap;html=1;align=center;fontSize=15;" parent="1" vertex="1">
                    <mxGeometry x="360" y="80" width="80" height="40" as="geometry"/>
                </mxCell>
                <mxCell id="88" value="Description" style="ellipse;whiteSpace=wrap;html=1;align=center;fontSize=15;" parent="1" vertex="1">
                    <mxGeometry x="480" y="80" width="80" height="40" as="geometry"/>
                </mxCell>
                <mxCell id="89" value="" style="endArrow=none;html=1;rounded=0;exitX=0.5;exitY=1;exitDx=0;exitDy=0;entryX=0.5;entryY=0;entryDx=0;entryDy=0;" parent="1" source="87" target="84" edge="1">
                    <mxGeometry relative="1" as="geometry">
                        <mxPoint x="380" y="130" as="sourcePoint"/>
                        <mxPoint x="540" y="130" as="targetPoint"/>
                        <Array as="points">
                            <mxPoint x="400" y="140"/>
                            <mxPoint x="460" y="140"/>
                        </Array>
                    </mxGeometry>
                </mxCell>
                <mxCell id="90" value="" style="endArrow=none;html=1;rounded=0;exitX=0.5;exitY=1;exitDx=0;exitDy=0;entryX=0.5;entryY=0;entryDx=0;entryDy=0;" parent="1" source="88" target="84" edge="1">
                    <mxGeometry relative="1" as="geometry">
                        <mxPoint x="520" y="140" as="sourcePoint"/>
                        <mxPoint x="680" y="140" as="targetPoint"/>
                        <Array as="points">
                            <mxPoint x="520" y="140"/>
                            <mxPoint x="460" y="140"/>
                        </Array>
                    </mxGeometry>
                </mxCell>
                <mxCell id="91" value="" style="endArrow=none;html=1;rounded=0;exitX=0.5;exitY=1;exitDx=0;exitDy=0;entryX=0.5;entryY=0;entryDx=0;entryDy=0;" parent="1" source="84" target="85" edge="1">
                    <mxGeometry relative="1" as="geometry">
                        <mxPoint x="330" y="300" as="sourcePoint"/>
                        <mxPoint x="490" y="300" as="targetPoint"/>
                    </mxGeometry>
                </mxCell>
                <mxCell id="92" value="&lt;h1&gt;Group&lt;/h1&gt;" style="rounded=0;whiteSpace=wrap;html=1;" parent="1" vertex="1">
                    <mxGeometry x="-1680" y="-40" width="200" height="120" as="geometry"/>
                </mxCell>
                <mxCell id="93" value="Name" style="ellipse;whiteSpace=wrap;html=1;align=center;fontSize=15;" parent="1" vertex="1">
                    <mxGeometry x="-1560" y="120" width="80" height="40" as="geometry"/>
                </mxCell>
                <mxCell id="94" value="&lt;font&gt;id&lt;/font&gt;" style="ellipse;whiteSpace=wrap;html=1;align=center;fontStyle=4;fontSize=22;" parent="1" vertex="1">
                    <mxGeometry x="-1680" y="120" width="80" height="40" as="geometry"/>
                </mxCell>
                <mxCell id="95" value="" style="endArrow=none;html=1;rounded=0;exitX=0.5;exitY=1;exitDx=0;exitDy=0;entryX=0.5;entryY=0;entryDx=0;entryDy=0;" parent="1" source="92" target="93" edge="1">
                    <mxGeometry relative="1" as="geometry">
                        <mxPoint x="-1520" y="100" as="sourcePoint"/>
                        <mxPoint x="-1360" y="100" as="targetPoint"/>
                        <Array as="points">
                            <mxPoint x="-1580" y="100"/>
                            <mxPoint x="-1520" y="100"/>
                        </Array>
                    </mxGeometry>
                </mxCell>
                <mxCell id="96" value="" style="endArrow=none;html=1;rounded=0;entryX=0.5;entryY=1;entryDx=0;entryDy=0;exitX=0.5;exitY=0;exitDx=0;exitDy=0;" parent="1" source="94" target="92" edge="1">
                    <mxGeometry relative="1" as="geometry">
                        <mxPoint x="-1820" y="110" as="sourcePoint"/>
                        <mxPoint x="-1660" y="110" as="targetPoint"/>
                        <Array as="points">
                            <mxPoint x="-1640" y="100"/>
                            <mxPoint x="-1580" y="100"/>
                        </Array>
                    </mxGeometry>
                </mxCell>
                <mxCell id="97" value="Read" style="ellipse;whiteSpace=wrap;html=1;align=center;fontSize=15;" parent="1" vertex="1">
                    <mxGeometry x="-1680" y="-120" width="80" height="40" as="geometry"/>
                </mxCell>
                <mxCell id="98" value="Write" style="ellipse;whiteSpace=wrap;html=1;align=center;fontSize=15;" parent="1" vertex="1">
                    <mxGeometry x="-1560" y="-120" width="80" height="40" as="geometry"/>
                </mxCell>
                <mxCell id="99" value="Update" style="ellipse;whiteSpace=wrap;html=1;align=center;fontSize=15;" parent="1" vertex="1">
                    <mxGeometry x="-1560" y="-200" width="80" height="40" as="geometry"/>
                </mxCell>
                <mxCell id="100" value="Delete" style="ellipse;whiteSpace=wrap;html=1;align=center;fontSize=15;" parent="1" vertex="1">
                    <mxGeometry x="-1680" y="-200" width="80" height="40" as="geometry"/>
                </mxCell>
                <mxCell id="101" value="" style="endArrow=none;html=1;rounded=0;exitX=0.5;exitY=0;exitDx=0;exitDy=0;entryX=0.5;entryY=1;entryDx=0;entryDy=0;" parent="1" source="92" target="99" edge="1">
                    <mxGeometry relative="1" as="geometry">
                        <mxPoint x="-1560" y="-60" as="sourcePoint"/>
                        <mxPoint x="-1400" y="-60" as="targetPoint"/>
                        <Array as="points">
                            <mxPoint x="-1580" y="-140"/>
                            <mxPoint x="-1520" y="-140"/>
                        </Array>
                    </mxGeometry>
                </mxCell>
                <mxCell id="102" value="" style="endArrow=none;html=1;rounded=0;exitX=0.5;exitY=0;exitDx=0;exitDy=0;entryX=0.5;entryY=1;entryDx=0;entryDy=0;" parent="1" source="92" target="100" edge="1">
                    <mxGeometry relative="1" as="geometry">
                        <mxPoint x="-1570" y="-30" as="sourcePoint"/>
                        <mxPoint x="-1510" y="-150" as="targetPoint"/>
                        <Array as="points">
                            <mxPoint x="-1580" y="-140"/>
                            <mxPoint x="-1640" y="-140"/>
                        </Array>
                    </mxGeometry>
                </mxCell>
                <mxCell id="103" value="" style="endArrow=none;html=1;rounded=0;exitX=0.5;exitY=0;exitDx=0;exitDy=0;entryX=0.5;entryY=0;entryDx=0;entryDy=0;" parent="1" source="92" target="98" edge="1">
                    <mxGeometry relative="1" as="geometry">
                        <mxPoint x="-1640" y="-60" as="sourcePoint"/>
                        <mxPoint x="-1480" y="-60" as="targetPoint"/>
                        <Array as="points">
                            <mxPoint x="-1580" y="-140"/>
                            <mxPoint x="-1520" y="-140"/>
                        </Array>
                    </mxGeometry>
                </mxCell>
                <mxCell id="104" value="" style="endArrow=none;html=1;rounded=0;exitX=0.5;exitY=0;exitDx=0;exitDy=0;entryX=0.5;entryY=0;entryDx=0;entryDy=0;" parent="1" source="92" target="97" edge="1">
                    <mxGeometry relative="1" as="geometry">
                        <mxPoint x="-1570" y="-50" as="sourcePoint"/>
                        <mxPoint x="-1410" y="-50" as="targetPoint"/>
                        <Array as="points">
                            <mxPoint x="-1580" y="-140"/>
                            <mxPoint x="-1640" y="-140"/>
                        </Array>
                    </mxGeometry>
                </mxCell>
                <mxCell id="105" value="&lt;h1&gt;User&lt;/h1&gt;" style="rounded=0;whiteSpace=wrap;html=1;" parent="1" vertex="1">
                    <mxGeometry x="-1280" y="-40" width="200" height="120" as="geometry"/>
                </mxCell>
                <mxCell id="106" value="&lt;font&gt;id&lt;/font&gt;" style="ellipse;whiteSpace=wrap;html=1;align=center;fontStyle=4;fontSize=22;" parent="1" vertex="1">
                    <mxGeometry x="-1280" y="120" width="80" height="40" as="geometry"/>
                </mxCell>
                <mxCell id="107" value="Email" style="ellipse;whiteSpace=wrap;html=1;align=center;fontSize=15;" parent="1" vertex="1">
                    <mxGeometry x="-1280" y="-120" width="80" height="40" as="geometry"/>
                </mxCell>
                <mxCell id="108" value="Username" style="ellipse;whiteSpace=wrap;html=1;align=center;fontSize=15;" parent="1" vertex="1">
                    <mxGeometry x="-1400" y="40" width="80" height="40" as="geometry"/>
                </mxCell>
                <mxCell id="109" value="Password" style="ellipse;whiteSpace=wrap;html=1;align=center;fontSize=15;" parent="1" vertex="1">
                    <mxGeometry x="-1400" y="-40" width="80" height="40" as="geometry"/>
                </mxCell>
                <mxCell id="110" value="Name" style="ellipse;whiteSpace=wrap;html=1;align=center;fontSize=15;" parent="1" vertex="1">
                    <mxGeometry x="-1160" y="-120" width="80" height="40" as="geometry"/>
                </mxCell>
                <mxCell id="111" value="GroupId" style="ellipse;whiteSpace=wrap;html=1;align=center;fontSize=15;" parent="1" vertex="1">
                    <mxGeometry x="-1160" y="120" width="80" height="40" as="geometry"/>
                </mxCell>
                <mxCell id="112" value="Avatar" style="ellipse;whiteSpace=wrap;html=1;align=center;fontSize=15;" parent="1" vertex="1">
                    <mxGeometry x="-1040" y="-40" width="80" height="40" as="geometry"/>
                </mxCell>
                <mxCell id="113" value="Bio" style="ellipse;whiteSpace=wrap;html=1;align=center;fontSize=15;" parent="1" vertex="1">
                    <mxGeometry x="-1040" y="40" width="80" height="40" as="geometry"/>
                </mxCell>
                <mxCell id="115" value="" style="endArrow=none;html=1;rounded=0;exitX=1;exitY=0.5;exitDx=0;exitDy=0;entryX=0;entryY=0.5;entryDx=0;entryDy=0;" parent="1" source="109" target="105" edge="1">
                    <mxGeometry relative="1" as="geometry">
                        <mxPoint x="-1290" y="-10" as="sourcePoint"/>
                        <mxPoint x="-1130" y="-10" as="targetPoint"/>
                        <Array as="points">
                            <mxPoint x="-1320" y="20"/>
                        </Array>
                    </mxGeometry>
                </mxCell>
                <mxCell id="116" value="" style="endArrow=none;html=1;rounded=0;exitX=1;exitY=0.5;exitDx=0;exitDy=0;entryX=0;entryY=0.5;entryDx=0;entryDy=0;" parent="1" source="108" target="105" edge="1">
                    <mxGeometry relative="1" as="geometry">
                        <mxPoint x="-1310" y="60" as="sourcePoint"/>
                        <mxPoint x="-1150" y="60" as="targetPoint"/>
                        <Array as="points">
                            <mxPoint x="-1320" y="20"/>
                        </Array>
                    </mxGeometry>
                </mxCell>
                <mxCell id="122" value="" style="endArrow=none;html=1;rounded=0;dashed=1;dashPattern=1 2;exitX=0;exitY=0.5;exitDx=0;exitDy=0;entryX=1;entryY=0.5;entryDx=0;entryDy=0;" parent="1" source="113" target="105" edge="1">
                    <mxGeometry relative="1" as="geometry">
                        <mxPoint x="-1070" y="120" as="sourcePoint"/>
                        <mxPoint x="-910" y="120" as="targetPoint"/>
                        <Array as="points">
                            <mxPoint x="-1060" y="60"/>
                            <mxPoint x="-1060" y="20"/>
                        </Array>
                    </mxGeometry>
                </mxCell>
                <mxCell id="123" value="1" style="resizable=0;html=1;whiteSpace=wrap;align=right;verticalAlign=bottom;" parent="122" connectable="0" vertex="1">
                    <mxGeometry x="1" relative="1" as="geometry">
                        <mxPoint x="20" y="30" as="offset"/>
                    </mxGeometry>
                </mxCell>
                <mxCell id="124" value="" style="endArrow=none;html=1;rounded=0;exitX=1;exitY=0.5;exitDx=0;exitDy=0;entryX=0;entryY=0.5;entryDx=0;entryDy=0;" parent="1" source="105" target="112" edge="1">
                    <mxGeometry relative="1" as="geometry">
                        <mxPoint x="-1050" y="-90" as="sourcePoint"/>
                        <mxPoint x="-890" y="-90" as="targetPoint"/>
                        <Array as="points">
                            <mxPoint x="-1060" y="20"/>
                            <mxPoint x="-1060" y="-20"/>
                        </Array>
                    </mxGeometry>
                </mxCell>
                <mxCell id="126" value="" style="endArrow=none;html=1;rounded=0;exitX=0.5;exitY=1;exitDx=0;exitDy=0;entryX=0.5;entryY=0;entryDx=0;entryDy=0;" parent="1" source="107" target="105" edge="1">
                    <mxGeometry relative="1" as="geometry">
                        <mxPoint x="-1250" y="-70" as="sourcePoint"/>
                        <mxPoint x="-1090" y="-70" as="targetPoint"/>
                        <Array as="points">
                            <mxPoint x="-1240" y="-60"/>
                            <mxPoint x="-1180" y="-60"/>
                        </Array>
                    </mxGeometry>
                </mxCell>
                <mxCell id="127" value="" style="endArrow=none;html=1;rounded=0;exitX=0.5;exitY=1;exitDx=0;exitDy=0;entryX=0.5;entryY=0;entryDx=0;entryDy=0;" parent="1" source="110" target="105" edge="1">
                    <mxGeometry relative="1" as="geometry">
                        <mxPoint x="-1140" y="-70" as="sourcePoint"/>
                        <mxPoint x="-980" y="-70" as="targetPoint"/>
                        <Array as="points">
                            <mxPoint x="-1120" y="-60"/>
                            <mxPoint x="-1180" y="-60"/>
                        </Array>
                    </mxGeometry>
                </mxCell>
                <mxCell id="128" value="" style="endArrow=none;html=1;rounded=0;dashed=1;dashPattern=1 2;entryX=0.5;entryY=0;entryDx=0;entryDy=0;exitX=0.5;exitY=1;exitDx=0;exitDy=0;" parent="1" source="32" target="17" edge="1">
                    <mxGeometry relative="1" as="geometry">
                        <mxPoint x="520" y="-590" as="sourcePoint"/>
                        <mxPoint x="780" y="-330" as="targetPoint"/>
                        <Array as="points">
                            <mxPoint x="460" y="-600"/>
                        </Array>
                    </mxGeometry>
                </mxCell>
                <mxCell id="129" value="1" style="resizable=0;html=1;whiteSpace=wrap;align=right;verticalAlign=bottom;" parent="128" connectable="0" vertex="1">
                    <mxGeometry x="1" relative="1" as="geometry">
                        <mxPoint x="10" y="-10" as="offset"/>
                    </mxGeometry>
                </mxCell>
                <mxCell id="130" value="&lt;h1&gt;Book&lt;/h1&gt;" style="rounded=0;whiteSpace=wrap;html=1;" parent="1" vertex="1">
                    <mxGeometry x="-320" y="-640" width="200" height="120" as="geometry"/>
                </mxCell>
                <mxCell id="131" value="&lt;font&gt;id&lt;/font&gt;" style="ellipse;whiteSpace=wrap;html=1;align=center;fontStyle=4;fontSize=22;" parent="1" vertex="1">
                    <mxGeometry x="-260" y="-480" width="80" height="40" as="geometry"/>
                </mxCell>
                <mxCell id="132" value="" style="endArrow=none;html=1;rounded=0;exitX=0.5;exitY=0;exitDx=0;exitDy=0;entryX=0.5;entryY=1;entryDx=0;entryDy=0;" parent="1" source="131" target="130" edge="1">
                    <mxGeometry relative="1" as="geometry">
                        <mxPoint x="-230" y="-500" as="sourcePoint"/>
                        <mxPoint x="-70" y="-500" as="targetPoint"/>
                    </mxGeometry>
                </mxCell>
                <mxCell id="133" value="Title" style="ellipse;whiteSpace=wrap;html=1;align=center;fontSize=15;" parent="1" vertex="1">
                    <mxGeometry x="-440" y="-560" width="80" height="40" as="geometry"/>
                </mxCell>
                <mxCell id="134" value="Author_Id" style="ellipse;whiteSpace=wrap;html=1;align=center;fontSize=15;" parent="1" vertex="1">
                    <mxGeometry x="-440" y="-640" width="80" height="40" as="geometry"/>
                </mxCell>
                <mxCell id="135" value="Release&lt;div&gt;Year&lt;/div&gt;" style="ellipse;whiteSpace=wrap;html=1;align=center;fontSize=15;" parent="1" vertex="1">
                    <mxGeometry x="-80" y="-640" width="80" height="40" as="geometry"/>
                </mxCell>
                <mxCell id="136" value="Description" style="ellipse;whiteSpace=wrap;html=1;align=center;fontSize=15;" parent="1" vertex="1">
                    <mxGeometry x="-80" y="-560" width="80" height="40" as="geometry"/>
                </mxCell>
                <mxCell id="137" value="CoverArt" style="ellipse;whiteSpace=wrap;html=1;align=center;fontSize=15;" parent="1" vertex="1">
                    <mxGeometry x="-320" y="-720" width="80" height="40" as="geometry"/>
                </mxCell>
                <mxCell id="138" value="ISBN" style="ellipse;whiteSpace=wrap;html=1;align=center;fontSize=15;" parent="1" vertex="1">
                    <mxGeometry x="-200" y="-720" width="80" height="40" as="geometry"/>
                </mxCell>
                <mxCell id="139" value="" style="endArrow=none;html=1;rounded=0;dashed=1;dashPattern=1 2;exitX=0.5;exitY=1;exitDx=0;exitDy=0;entryX=0.5;entryY=0;entryDx=0;entryDy=0;" parent="1" source="138" target="130" edge="1">
                    <mxGeometry relative="1" as="geometry">
                        <mxPoint x="-160" y="-670" as="sourcePoint"/>
                        <mxPoint x="-200" y="-650" as="targetPoint"/>
                        <Array as="points">
                            <mxPoint x="-160" y="-660"/>
                            <mxPoint x="-220" y="-660"/>
                        </Array>
                    </mxGeometry>
                </mxCell>
                <mxCell id="140" value="1" style="resizable=0;html=1;whiteSpace=wrap;align=right;verticalAlign=bottom;" parent="139" connectable="0" vertex="1">
                    <mxGeometry x="1" relative="1" as="geometry">
                        <mxPoint x="20" as="offset"/>
                    </mxGeometry>
                </mxCell>
                <mxCell id="143" value="" style="endArrow=none;html=1;rounded=0;dashed=1;dashPattern=1 2;exitX=0.5;exitY=1;exitDx=0;exitDy=0;entryX=0.5;entryY=0;entryDx=0;entryDy=0;" parent="1" source="137" target="130" edge="1">
                    <mxGeometry relative="1" as="geometry">
                        <mxPoint x="-320" y="-710" as="sourcePoint"/>
                        <mxPoint x="-240" y="-650" as="targetPoint"/>
                        <Array as="points">
                            <mxPoint x="-280" y="-660"/>
                            <mxPoint x="-220" y="-660"/>
                        </Array>
                    </mxGeometry>
                </mxCell>
                <mxCell id="144" value="1" style="resizable=0;html=1;whiteSpace=wrap;align=right;verticalAlign=bottom;" parent="143" connectable="0" vertex="1">
                    <mxGeometry x="1" relative="1" as="geometry">
                        <mxPoint x="-10" as="offset"/>
                    </mxGeometry>
                </mxCell>
                <mxCell id="145" value="" style="endArrow=none;html=1;rounded=0;exitX=1;exitY=0.5;exitDx=0;exitDy=0;entryX=0;entryY=0.5;entryDx=0;entryDy=0;" parent="1" source="130" target="135" edge="1">
                    <mxGeometry relative="1" as="geometry">
                        <mxPoint x="-100" y="-580" as="sourcePoint"/>
                        <mxPoint x="60" y="-580" as="targetPoint"/>
                        <Array as="points">
                            <mxPoint x="-100" y="-580"/>
                            <mxPoint x="-100" y="-620"/>
                        </Array>
                    </mxGeometry>
                </mxCell>
                <mxCell id="146" value="" style="endArrow=none;html=1;rounded=0;exitX=1;exitY=0.5;exitDx=0;exitDy=0;entryX=0;entryY=0.5;entryDx=0;entryDy=0;" parent="1" source="130" target="136" edge="1">
                    <mxGeometry relative="1" as="geometry">
                        <mxPoint x="-100" y="-560" as="sourcePoint"/>
                        <mxPoint x="60" y="-560" as="targetPoint"/>
                        <Array as="points">
                            <mxPoint x="-100" y="-580"/>
                            <mxPoint x="-100" y="-540"/>
                        </Array>
                    </mxGeometry>
                </mxCell>
                <mxCell id="147" value="" style="endArrow=none;html=1;rounded=0;entryX=1;entryY=0.5;entryDx=0;entryDy=0;exitX=0;exitY=0.5;exitDx=0;exitDy=0;" parent="1" source="130" target="134" edge="1">
                    <mxGeometry relative="1" as="geometry">
                        <mxPoint x="-340" y="-550" as="sourcePoint"/>
                        <mxPoint x="-220" y="-580" as="targetPoint"/>
                        <Array as="points">
                            <mxPoint x="-340" y="-580"/>
                            <mxPoint x="-340" y="-620"/>
                        </Array>
                    </mxGeometry>
                </mxCell>
                <mxCell id="148" value="" style="endArrow=none;html=1;rounded=0;exitX=1;exitY=0.5;exitDx=0;exitDy=0;entryX=0;entryY=0.5;entryDx=0;entryDy=0;" parent="1" source="133" target="130" edge="1">
                    <mxGeometry relative="1" as="geometry">
                        <mxPoint x="-350" y="-540" as="sourcePoint"/>
                        <mxPoint x="-190" y="-540" as="targetPoint"/>
                        <Array as="points">
                            <mxPoint x="-340" y="-540"/>
                            <mxPoint x="-340" y="-580"/>
                        </Array>
                    </mxGeometry>
                </mxCell>
                <mxCell id="149" value="" style="endArrow=none;html=1;rounded=0;dashed=1;dashPattern=1 2;exitX=0;exitY=0.5;exitDx=0;exitDy=0;entryX=1;entryY=0.5;entryDx=0;entryDy=0;" parent="1" source="78" target="71" edge="1">
                    <mxGeometry relative="1" as="geometry">
                        <mxPoint x="-510" y="-720" as="sourcePoint"/>
                        <mxPoint x="-350" y="-720" as="targetPoint"/>
                    </mxGeometry>
                </mxCell>
                <mxCell id="150" value="1" style="resizable=0;html=1;whiteSpace=wrap;align=right;verticalAlign=bottom;" parent="149" connectable="0" vertex="1">
                    <mxGeometry x="1" relative="1" as="geometry">
                        <mxPoint x="10" as="offset"/>
                    </mxGeometry>
                </mxCell>
                <mxCell id="152" value="" style="endArrow=none;html=1;rounded=0;dashed=1;dashPattern=1 2;exitX=0;exitY=0.5;exitDx=0;exitDy=0;entryX=1;entryY=0.5;entryDx=0;entryDy=0;" parent="1" source="45" target="40" edge="1">
                    <mxGeometry relative="1" as="geometry">
                        <mxPoint x="-70" y="-160" as="sourcePoint"/>
                        <mxPoint x="90" y="-160" as="targetPoint"/>
                        <Array as="points">
                            <mxPoint x="-100" y="-260"/>
                            <mxPoint x="-100" y="-300"/>
                        </Array>
                    </mxGeometry>
                </mxCell>
                <mxCell id="153" value="1" style="resizable=0;html=1;whiteSpace=wrap;align=right;verticalAlign=bottom;" parent="152" connectable="0" vertex="1">
                    <mxGeometry x="1" relative="1" as="geometry">
                        <mxPoint x="20" y="30" as="offset"/>
                    </mxGeometry>
                </mxCell>
                <mxCell id="154" value="" style="endArrow=none;html=1;rounded=0;exitX=0.5;exitY=1;exitDx=0;exitDy=0;entryX=0.5;entryY=0;entryDx=0;entryDy=0;" parent="1" source="105" target="111" edge="1">
                    <mxGeometry relative="1" as="geometry">
                        <mxPoint x="-1180" y="100" as="sourcePoint"/>
                        <mxPoint x="-1020" y="100" as="targetPoint"/>
                        <Array as="points">
                            <mxPoint x="-1180" y="100"/>
                            <mxPoint x="-1120" y="100"/>
                        </Array>
                    </mxGeometry>
                </mxCell>
                <mxCell id="155" value="" style="endArrow=none;html=1;rounded=0;entryX=0.5;entryY=0;entryDx=0;entryDy=0;" parent="1" source="105" target="106" edge="1">
                    <mxGeometry relative="1" as="geometry">
                        <mxPoint x="-1260" y="110" as="sourcePoint"/>
                        <mxPoint x="-1100" y="110" as="targetPoint"/>
                        <Array as="points">
                            <mxPoint x="-1180" y="100"/>
                            <mxPoint x="-1240" y="100"/>
                        </Array>
                    </mxGeometry>
                </mxCell>
                <mxCell id="156" value="&lt;h1&gt;TvEpisode&lt;/h1&gt;" style="rounded=0;whiteSpace=wrap;html=1;" parent="1" vertex="1">
                    <mxGeometry x="-320" y="720" width="200" height="120" as="geometry"/>
                </mxCell>
                <mxCell id="157" value="Title" style="ellipse;whiteSpace=wrap;html=1;align=center;fontSize=15;" parent="1" vertex="1">
                    <mxGeometry x="-320" y="880" width="80" height="40" as="geometry"/>
                </mxCell>
                <mxCell id="158" value="TvSeason&lt;div&gt;Id&lt;/div&gt;" style="ellipse;whiteSpace=wrap;html=1;align=center;fontSize=15;" parent="1" vertex="1">
                    <mxGeometry x="-80" y="760" width="80" height="40" as="geometry"/>
                </mxCell>
                <mxCell id="159" value="&lt;font&gt;id&lt;/font&gt;" style="ellipse;whiteSpace=wrap;html=1;align=center;fontStyle=4;fontSize=22;" parent="1" vertex="1">
                    <mxGeometry x="-200" y="880" width="80" height="40" as="geometry"/>
                </mxCell>
                <mxCell id="160" value="Episode&lt;div&gt;Number&lt;/div&gt;" style="ellipse;whiteSpace=wrap;html=1;align=center;fontSize=15;" parent="1" vertex="1">
                    <mxGeometry x="-200" y="640" width="80" height="40" as="geometry"/>
                </mxCell>
                <mxCell id="161" value="Description" style="ellipse;whiteSpace=wrap;html=1;align=center;fontSize=15;" parent="1" vertex="1">
                    <mxGeometry x="-320" y="640" width="80" height="40" as="geometry"/>
                </mxCell>
                <mxCell id="162" value="" style="endArrow=none;html=1;rounded=0;dashed=1;dashPattern=1 2;exitX=0.5;exitY=1;exitDx=0;exitDy=0;entryX=0.5;entryY=0;entryDx=0;entryDy=0;" parent="1" source="161" target="156" edge="1">
                    <mxGeometry relative="1" as="geometry">
                        <mxPoint x="-280" y="700" as="sourcePoint"/>
                        <mxPoint x="-120" y="700" as="targetPoint"/>
                        <Array as="points">
                            <mxPoint x="-280" y="700"/>
                            <mxPoint x="-220" y="700"/>
                        </Array>
                    </mxGeometry>
                </mxCell>
                <mxCell id="163" value="1" style="resizable=0;html=1;whiteSpace=wrap;align=right;verticalAlign=bottom;" parent="162" connectable="0" vertex="1">
                    <mxGeometry x="1" relative="1" as="geometry">
                        <mxPoint x="-10" as="offset"/>
                    </mxGeometry>
                </mxCell>
                <mxCell id="164" value="" style="endArrow=none;html=1;rounded=0;exitX=0.5;exitY=0;exitDx=0;exitDy=0;entryX=0.5;entryY=1;entryDx=0;entryDy=0;" parent="1" source="156" target="160" edge="1">
                    <mxGeometry relative="1" as="geometry">
                        <mxPoint x="-50" y="680" as="sourcePoint"/>
                        <mxPoint x="110" y="680" as="targetPoint"/>
                        <Array as="points">
                            <mxPoint x="-220" y="700"/>
                            <mxPoint x="-160" y="700"/>
                        </Array>
                    </mxGeometry>
                </mxCell>
                <mxCell id="165" value="Release&lt;div&gt;Date&lt;/div&gt;" style="ellipse;whiteSpace=wrap;html=1;align=center;fontSize=15;" parent="1" vertex="1">
                    <mxGeometry x="-440" y="760" width="80" height="40" as="geometry"/>
                </mxCell>
                <mxCell id="166" value="" style="endArrow=none;html=1;rounded=0;exitX=1;exitY=0.5;exitDx=0;exitDy=0;entryX=0;entryY=0.5;entryDx=0;entryDy=0;" parent="1" source="165" target="156" edge="1">
                    <mxGeometry relative="1" as="geometry">
                        <mxPoint x="-400" y="620" as="sourcePoint"/>
                        <mxPoint x="-240" y="620" as="targetPoint"/>
                    </mxGeometry>
                </mxCell>
                <mxCell id="167" value="" style="endArrow=none;html=1;rounded=0;exitX=1;exitY=0.5;exitDx=0;exitDy=0;entryX=0;entryY=0.5;entryDx=0;entryDy=0;" parent="1" source="156" target="158" edge="1">
                    <mxGeometry relative="1" as="geometry">
                        <mxPoint x="-30" y="780" as="sourcePoint"/>
                        <mxPoint x="130" y="780" as="targetPoint"/>
                    </mxGeometry>
                </mxCell>
                <mxCell id="168" value="" style="endArrow=none;html=1;rounded=0;exitX=0.5;exitY=0;exitDx=0;exitDy=0;entryX=0.5;entryY=1;entryDx=0;entryDy=0;" parent="1" source="159" target="156" edge="1">
                    <mxGeometry relative="1" as="geometry">
                        <mxPoint x="-70" y="880" as="sourcePoint"/>
                        <mxPoint x="90" y="880" as="targetPoint"/>
                        <Array as="points">
                            <mxPoint x="-160" y="860"/>
                            <mxPoint x="-220" y="860"/>
                        </Array>
                    </mxGeometry>
                </mxCell>
                <mxCell id="169" value="" style="endArrow=none;html=1;rounded=0;exitX=0.5;exitY=0;exitDx=0;exitDy=0;entryX=0.5;entryY=1;entryDx=0;entryDy=0;" parent="1" source="157" target="156" edge="1">
                    <mxGeometry relative="1" as="geometry">
                        <mxPoint x="-240" y="860" as="sourcePoint"/>
                        <mxPoint x="-80" y="860" as="targetPoint"/>
                        <Array as="points">
                            <mxPoint x="-280" y="860"/>
                            <mxPoint x="-220" y="860"/>
                        </Array>
                    </mxGeometry>
                </mxCell>
                <mxCell id="170" value="&lt;h1&gt;TvSeason&lt;/h1&gt;" style="rounded=0;whiteSpace=wrap;html=1;" parent="1" vertex="1">
                    <mxGeometry x="-320" y="360" width="200" height="120" as="geometry"/>
                </mxCell>
                <mxCell id="171" value="&lt;font&gt;id&lt;/font&gt;" style="ellipse;whiteSpace=wrap;html=1;align=center;fontStyle=4;fontSize=22;" parent="1" vertex="1">
                    <mxGeometry x="-260" y="520" width="80" height="40" as="geometry"/>
                </mxCell>
                <mxCell id="172" value="" style="endArrow=none;html=1;rounded=0;exitX=0.5;exitY=0;exitDx=0;exitDy=0;entryX=0.5;entryY=1;entryDx=0;entryDy=0;" parent="1" source="171" target="170" edge="1">
                    <mxGeometry relative="1" as="geometry">
                        <mxPoint x="-40" y="460" as="sourcePoint"/>
                        <mxPoint x="120" y="460" as="targetPoint"/>
                        <Array as="points">
                            <mxPoint x="-220" y="500"/>
                        </Array>
                    </mxGeometry>
                </mxCell>
                <mxCell id="173" value="Season&lt;div&gt;Number&lt;/div&gt;" style="ellipse;whiteSpace=wrap;html=1;align=center;fontSize=15;" parent="1" vertex="1">
                    <mxGeometry x="-200" y="280" width="80" height="40" as="geometry"/>
                </mxCell>
                <mxCell id="174" value="Description" style="ellipse;whiteSpace=wrap;html=1;align=center;fontSize=15;" parent="1" vertex="1">
                    <mxGeometry x="-320" y="280" width="80" height="40" as="geometry"/>
                </mxCell>
                <mxCell id="175" value="Release&lt;div&gt;Year&lt;/div&gt;" style="ellipse;whiteSpace=wrap;html=1;align=center;fontSize=15;" parent="1" vertex="1">
                    <mxGeometry x="-440" y="400" width="80" height="40" as="geometry"/>
                </mxCell>
                <mxCell id="176" value="TvShow&lt;div&gt;Id&lt;/div&gt;" style="ellipse;whiteSpace=wrap;html=1;align=center;fontSize=15;" parent="1" vertex="1">
                    <mxGeometry x="-80" y="400" width="80" height="40" as="geometry"/>
                </mxCell>
                <mxCell id="177" value="" style="endArrow=none;html=1;rounded=0;dashed=1;dashPattern=1 2;exitX=0.5;exitY=1;exitDx=0;exitDy=0;entryX=0.5;entryY=0;entryDx=0;entryDy=0;" parent="1" source="174" target="170" edge="1">
                    <mxGeometry relative="1" as="geometry">
                        <mxPoint x="-300" y="330" as="sourcePoint"/>
                        <mxPoint x="-200" y="350" as="targetPoint"/>
                        <Array as="points">
                            <mxPoint x="-280" y="340"/>
                            <mxPoint x="-220" y="340"/>
                        </Array>
                    </mxGeometry>
                </mxCell>
                <mxCell id="178" value="1" style="resizable=0;html=1;whiteSpace=wrap;align=right;verticalAlign=bottom;" parent="177" connectable="0" vertex="1">
                    <mxGeometry x="1" relative="1" as="geometry">
                        <mxPoint x="-10" as="offset"/>
                    </mxGeometry>
                </mxCell>
                <mxCell id="179" value="" style="endArrow=none;html=1;rounded=0;exitX=0.5;exitY=1;exitDx=0;exitDy=0;entryX=0.5;entryY=0;entryDx=0;entryDy=0;" parent="1" source="173" target="170" edge="1">
                    <mxGeometry relative="1" as="geometry">
                        <mxPoint x="-100" y="320" as="sourcePoint"/>
                        <mxPoint x="60" y="320" as="targetPoint"/>
                        <Array as="points">
                            <mxPoint x="-160" y="340"/>
                            <mxPoint x="-220" y="340"/>
                        </Array>
                    </mxGeometry>
                </mxCell>
                <mxCell id="180" value="" style="endArrow=none;html=1;rounded=0;exitX=1;exitY=0.5;exitDx=0;exitDy=0;entryX=0;entryY=0.5;entryDx=0;entryDy=0;" parent="1" source="170" target="176" edge="1">
                    <mxGeometry relative="1" as="geometry">
                        <mxPoint x="-70" y="350" as="sourcePoint"/>
                        <mxPoint x="90" y="350" as="targetPoint"/>
                    </mxGeometry>
                </mxCell>
                <mxCell id="181" value="" style="endArrow=none;html=1;rounded=0;exitX=1;exitY=0.5;exitDx=0;exitDy=0;entryX=0;entryY=0.5;entryDx=0;entryDy=0;" parent="1" source="175" target="170" edge="1">
                    <mxGeometry relative="1" as="geometry">
                        <mxPoint x="-420" y="360" as="sourcePoint"/>
                        <mxPoint x="-260" y="360" as="targetPoint"/>
                    </mxGeometry>
                </mxCell>
                <mxCell id="182" value="&lt;h1&gt;TvShow&lt;/h1&gt;" style="rounded=0;whiteSpace=wrap;html=1;" parent="1" vertex="1">
                    <mxGeometry x="-320" width="200" height="120" as="geometry"/>
                </mxCell>
                <mxCell id="183" value="Seasons" style="ellipse;whiteSpace=wrap;html=1;align=center;fontSize=15;" parent="1" vertex="1">
                    <mxGeometry x="-200" y="-80" width="80" height="40" as="geometry"/>
                </mxCell>
                <mxCell id="184" value="CoverArt" style="ellipse;whiteSpace=wrap;html=1;align=center;fontSize=15;" parent="1" vertex="1">
                    <mxGeometry x="-440" y="40" width="80" height="40" as="geometry"/>
                </mxCell>
                <mxCell id="185" value="" style="endArrow=none;html=1;rounded=0;dashed=1;dashPattern=1 2;entryX=0;entryY=0.5;entryDx=0;entryDy=0;exitX=1;exitY=0.5;exitDx=0;exitDy=0;" parent="1" source="184" target="182" edge="1">
                    <mxGeometry relative="1" as="geometry">
                        <mxPoint x="-360" y="60" as="sourcePoint"/>
                        <mxPoint x="-330" y="70" as="targetPoint"/>
                        <Array as="points"/>
                    </mxGeometry>
                </mxCell>
                <mxCell id="186" value="1" style="resizable=0;html=1;whiteSpace=wrap;align=right;verticalAlign=bottom;" parent="185" connectable="0" vertex="1">
                    <mxGeometry x="1" relative="1" as="geometry">
                        <mxPoint as="offset"/>
                    </mxGeometry>
                </mxCell>
                <mxCell id="187" value="" style="endArrow=none;html=1;rounded=0;exitX=0.5;exitY=0;exitDx=0;exitDy=0;entryX=0.5;entryY=1;entryDx=0;entryDy=0;" parent="1" source="182" target="183" edge="1">
                    <mxGeometry relative="1" as="geometry">
                        <mxPoint x="-90" as="sourcePoint"/>
                        <mxPoint x="70" as="targetPoint"/>
                        <Array as="points">
                            <mxPoint x="-220" y="-20"/>
                            <mxPoint x="-160" y="-20"/>
                        </Array>
                    </mxGeometry>
                </mxCell>
                <mxCell id="188" value="Description" style="ellipse;whiteSpace=wrap;html=1;align=center;fontSize=15;" parent="1" vertex="1">
                    <mxGeometry x="-320" y="-80" width="80" height="40" as="geometry"/>
                </mxCell>
                <mxCell id="189" value="" style="endArrow=none;html=1;rounded=0;entryX=0.5;entryY=1;entryDx=0;entryDy=0;exitX=0.5;exitY=0;exitDx=0;exitDy=0;" parent="1" source="182" target="188" edge="1">
                    <mxGeometry relative="1" as="geometry">
                        <mxPoint x="-300" y="-10" as="sourcePoint"/>
                        <mxPoint x="-270" y="-20" as="targetPoint"/>
                        <Array as="points">
                            <mxPoint x="-220" y="-20"/>
                            <mxPoint x="-280" y="-20"/>
                        </Array>
                    </mxGeometry>
                </mxCell>
                <mxCell id="190" value="Title" style="ellipse;whiteSpace=wrap;html=1;align=center;fontSize=15;" parent="1" vertex="1">
                    <mxGeometry x="-80" y="40" width="80" height="40" as="geometry"/>
                </mxCell>
                <mxCell id="191" value="" style="endArrow=none;html=1;rounded=0;exitX=1;exitY=0.5;exitDx=0;exitDy=0;entryX=0;entryY=0.5;entryDx=0;entryDy=0;" parent="1" source="182" target="190" edge="1">
                    <mxGeometry relative="1" as="geometry">
                        <mxPoint x="-80" y="140" as="sourcePoint"/>
                        <mxPoint x="80" y="140" as="targetPoint"/>
                    </mxGeometry>
                </mxCell>
                <mxCell id="192" value="&lt;font&gt;id&lt;/font&gt;" style="ellipse;whiteSpace=wrap;html=1;align=center;fontStyle=4;fontSize=22;" parent="1" vertex="1">
                    <mxGeometry x="-200" y="160" width="80" height="40" as="geometry"/>
                </mxCell>
                <mxCell id="193" value="Creator_Id" style="ellipse;whiteSpace=wrap;html=1;align=center;fontSize=15;" parent="1" vertex="1">
                    <mxGeometry x="-320" y="160" width="80" height="40" as="geometry"/>
                </mxCell>
                <mxCell id="194" value="" style="endArrow=none;html=1;rounded=0;exitX=0.5;exitY=0;exitDx=0;exitDy=0;entryX=0.5;entryY=1;entryDx=0;entryDy=0;" parent="1" source="193" target="182" edge="1">
                    <mxGeometry relative="1" as="geometry">
                        <mxPoint x="-180" y="140" as="sourcePoint"/>
                        <mxPoint x="-20" y="140" as="targetPoint"/>
                        <Array as="points">
                            <mxPoint x="-280" y="140"/>
                            <mxPoint x="-220" y="140"/>
                        </Array>
                    </mxGeometry>
                </mxCell>
                <mxCell id="195" value="" style="endArrow=none;html=1;rounded=0;entryX=0.5;entryY=1;entryDx=0;entryDy=0;exitX=0.5;exitY=0;exitDx=0;exitDy=0;" parent="1" source="192" target="182" edge="1">
                    <mxGeometry relative="1" as="geometry">
                        <mxPoint x="-150" y="150" as="sourcePoint"/>
                        <mxPoint x="40" y="160" as="targetPoint"/>
                        <Array as="points">
                            <mxPoint x="-160" y="140"/>
                            <mxPoint x="-220" y="140"/>
                        </Array>
                    </mxGeometry>
                </mxCell>
                <mxCell id="201" value="" style="endArrow=none;html=1;rounded=0;exitX=0.5;exitY=1;exitDx=0;exitDy=0;entryX=0.5;entryY=0;entryDx=0;entryDy=0;" parent="1" source="192" target="176" edge="1">
                    <mxGeometry relative="1" as="geometry">
                        <mxPoint x="-250" y="250" as="sourcePoint"/>
                        <mxPoint x="-90" y="250" as="targetPoint"/>
                        <Array as="points">
                            <mxPoint x="-160" y="240"/>
                            <mxPoint x="-40" y="240"/>
                        </Array>
                    </mxGeometry>
                </mxCell>
                <mxCell id="202" value="1" style="resizable=0;html=1;whiteSpace=wrap;align=left;verticalAlign=bottom;" parent="201" connectable="0" vertex="1">
                    <mxGeometry x="-1" relative="1" as="geometry">
                        <mxPoint x="-10" y="30" as="offset"/>
                    </mxGeometry>
                </mxCell>
                <mxCell id="203" value="N" style="resizable=0;html=1;whiteSpace=wrap;align=right;verticalAlign=bottom;" parent="201" connectable="0" vertex="1">
                    <mxGeometry x="1" relative="1" as="geometry">
                        <mxPoint x="10" y="-10" as="offset"/>
                    </mxGeometry>
                </mxCell>
                <mxCell id="204" value="" style="endArrow=none;html=1;rounded=0;exitX=0.5;exitY=1;exitDx=0;exitDy=0;entryX=0.5;entryY=0;entryDx=0;entryDy=0;" parent="1" source="171" target="158" edge="1">
                    <mxGeometry relative="1" as="geometry">
                        <mxPoint x="-270" y="210" as="sourcePoint"/>
                        <mxPoint x="-30" y="410" as="targetPoint"/>
                        <Array as="points">
                            <mxPoint x="-220" y="600"/>
                            <mxPoint x="-40" y="600"/>
                        </Array>
                    </mxGeometry>
                </mxCell>
                <mxCell id="205" value="1" style="resizable=0;html=1;whiteSpace=wrap;align=left;verticalAlign=bottom;" parent="204" connectable="0" vertex="1">
                    <mxGeometry x="-1" relative="1" as="geometry">
                        <mxPoint x="-10" y="30" as="offset"/>
                    </mxGeometry>
                </mxCell>
                <mxCell id="206" value="N" style="resizable=0;html=1;whiteSpace=wrap;align=right;verticalAlign=bottom;" parent="204" connectable="0" vertex="1">
                    <mxGeometry x="1" relative="1" as="geometry">
                        <mxPoint x="10" y="-10" as="offset"/>
                    </mxGeometry>
                </mxCell>
                <mxCell id="208" value="MovieActor" style="shape=rhombus;whiteSpace=wrap;html=1;align=center;spacing=2;spacingTop=-4;spacingLeft=0;spacingBottom=-1;fillColor=#fa6800;strokeColor=#C73500;fontColor=#000000;" parent="1" vertex="1">
                    <mxGeometry x="40" y="-320" width="120" height="80" as="geometry"/>
                </mxCell>
                <mxCell id="209" value="TvShowActor" style="shape=rhombus;whiteSpace=wrap;html=1;align=center;spacing=2;spacingTop=-4;spacingLeft=0;spacingBottom=-1;fillColor=#fa6800;strokeColor=#C73500;fontColor=#000000;" parent="1" vertex="1">
                    <mxGeometry x="40" y="80" width="120" height="80" as="geometry"/>
                </mxCell>
                <mxCell id="210" value="MovieGenre" style="shape=rhombus;whiteSpace=wrap;html=1;align=center;spacing=2;spacingTop=-4;spacingLeft=0;spacingBottom=-1;fillColor=#fa6800;strokeColor=#C73500;fontColor=#000000;" parent="1" vertex="1">
                    <mxGeometry x="40" y="-200" width="120" height="80" as="geometry"/>
                </mxCell>
                <mxCell id="211" value="UserMovie&#xa;Rating" style="shape=rhombus;whiteSpace=wrap;html=1;align=center;spacing=2;spacingTop=-4;spacingLeft=0;spacingBottom=-1;fillColor=#fa6800;strokeColor=#C73500;fontColor=#000000;" parent="1" vertex="1">
                    <mxGeometry x="-720" width="120" height="80" as="geometry"/>
                </mxCell>
                <mxCell id="212" value="MovieCharacter" style="shape=rhombus;whiteSpace=wrap;html=1;align=center;spacing=2;spacingTop=-4;spacingLeft=0;spacingBottom=-1;fillColor=#fa6800;strokeColor=#C73500;fontColor=#000000;" parent="1" vertex="1">
                    <mxGeometry x="40" y="-440" width="120" height="80" as="geometry"/>
                </mxCell>
                <mxCell id="213" value="TvGenre" style="shape=rhombus;whiteSpace=wrap;html=1;align=center;spacing=2;spacingTop=-4;spacingLeft=0;spacingBottom=-1;fillColor=#fa6800;strokeColor=#C73500;fontColor=#000000;" parent="1" vertex="1">
                    <mxGeometry x="40" y="200" width="120" height="80" as="geometry"/>
                </mxCell>
                <mxCell id="214" value="TvCharacter" style="shape=rhombus;whiteSpace=wrap;html=1;align=center;spacing=2;spacingTop=-4;spacingLeft=0;spacingBottom=-1;fillColor=#fa6800;strokeColor=#C73500;fontColor=#000000;" parent="1" vertex="1">
                    <mxGeometry x="40" y="-40" width="120" height="80" as="geometry"/>
                </mxCell>
                <mxCell id="216" value="BookGenre" style="shape=rhombus;whiteSpace=wrap;html=1;align=center;spacing=2;spacingTop=-4;spacingLeft=0;spacingBottom=-1;fillColor=#fa6800;strokeColor=#C73500;fontColor=#000000;" parent="1" vertex="1">
                    <mxGeometry x="40" y="-720" width="120" height="80" as="geometry"/>
                </mxCell>
                <mxCell id="217" value="BookCharacter" style="shape=rhombus;whiteSpace=wrap;html=1;align=center;spacing=2;spacingTop=-4;spacingLeft=0;spacingBottom=-1;fillColor=#fa6800;strokeColor=#C73500;fontColor=#000000;" parent="1" vertex="1">
                    <mxGeometry x="40" y="-600" width="120" height="80" as="geometry"/>
                </mxCell>
                <mxCell id="219" value="CharacterActor" style="shape=rhombus;whiteSpace=wrap;html=1;align=center;spacing=2;spacingTop=-4;spacingLeft=0;spacingBottom=-1;fillColor=#fa6800;strokeColor=#C73500;fontColor=#000000;" parent="1" vertex="1">
                    <mxGeometry x="640" y="-360" width="120" height="80" as="geometry"/>
                </mxCell>
                <mxCell id="223" value="" style="edgeStyle=entityRelationEdgeStyle;fontSize=12;html=1;endArrow=ERmany;startArrow=ERmany;fillColor=#e51400;strokeColor=#B20000;entryX=0;entryY=0.5;entryDx=0;entryDy=0;exitX=0.75;exitY=0;exitDx=0;exitDy=0;" parent="1" source="105" target="211" edge="1">
                    <mxGeometry width="100" height="100" relative="1" as="geometry">
                        <mxPoint x="-875" y="530" as="sourcePoint"/>
                        <mxPoint x="-715" y="650" as="targetPoint"/>
                        <Array as="points">
                            <mxPoint x="-855" y="560"/>
                            <mxPoint x="-455" y="720"/>
                            <mxPoint x="-975" y="650"/>
                            <mxPoint x="-1035" y="660"/>
                        </Array>
                    </mxGeometry>
                </mxCell>
                <mxCell id="226" value="Rating" style="ellipse;whiteSpace=wrap;html=1;align=center;fontSize=15;" parent="1" vertex="1">
                    <mxGeometry x="-700" y="120" width="80" height="40" as="geometry"/>
                </mxCell>
                <mxCell id="227" value="CreatedAt" style="ellipse;whiteSpace=wrap;html=1;align=center;fontSize=15;" parent="1" vertex="1">
                    <mxGeometry x="-560" y="80" width="80" height="40" as="geometry"/>
                </mxCell>
                <mxCell id="228" value="UpdatedAt" style="ellipse;whiteSpace=wrap;html=1;align=center;fontSize=15;" parent="1" vertex="1">
                    <mxGeometry x="-840" y="80" width="80" height="40" as="geometry"/>
                </mxCell>
                <mxCell id="229" value="&lt;font&gt;id&lt;/font&gt;" style="ellipse;whiteSpace=wrap;html=1;align=center;fontStyle=4;fontSize=22;" parent="1" vertex="1">
                    <mxGeometry x="-700" y="-80" width="80" height="40" as="geometry"/>
                </mxCell>
                <mxCell id="231" value="" style="endArrow=none;html=1;rounded=0;exitX=0.5;exitY=1;exitDx=0;exitDy=0;" parent="1" source="211" edge="1">
                    <mxGeometry relative="1" as="geometry">
                        <mxPoint x="-610" y="90" as="sourcePoint"/>
                        <mxPoint x="-560" y="100" as="targetPoint"/>
                        <Array as="points">
                            <mxPoint x="-660" y="100"/>
                        </Array>
                    </mxGeometry>
                </mxCell>
                <mxCell id="232" value="" style="endArrow=none;html=1;rounded=0;exitX=0.5;exitY=1;exitDx=0;exitDy=0;entryX=1;entryY=0.5;entryDx=0;entryDy=0;" parent="1" source="211" target="228" edge="1">
                    <mxGeometry relative="1" as="geometry">
                        <mxPoint x="-790" y="80" as="sourcePoint"/>
                        <mxPoint x="-740" y="80" as="targetPoint"/>
                        <Array as="points">
                            <mxPoint x="-660" y="100"/>
                        </Array>
                    </mxGeometry>
                </mxCell>
                <mxCell id="233" value="" style="endArrow=none;html=1;rounded=0;exitX=0.5;exitY=1;exitDx=0;exitDy=0;entryX=0.5;entryY=0;entryDx=0;entryDy=0;" parent="1" source="211" target="226" edge="1">
                    <mxGeometry relative="1" as="geometry">
                        <mxPoint x="-640" y="110" as="sourcePoint"/>
                        <mxPoint x="-480" y="110" as="targetPoint"/>
                        <Array as="points"/>
                    </mxGeometry>
                </mxCell>
                <mxCell id="234" value="" style="endArrow=none;html=1;rounded=0;exitX=0.5;exitY=0;exitDx=0;exitDy=0;entryX=0.5;entryY=1;entryDx=0;entryDy=0;" parent="1" source="211" target="229" edge="1">
                    <mxGeometry relative="1" as="geometry">
                        <mxPoint x="-580" y="10" as="sourcePoint"/>
                        <mxPoint x="-640" y="-30" as="targetPoint"/>
                    </mxGeometry>
                </mxCell>
                <mxCell id="235" value="UserTvShow&lt;div&gt;Rating&lt;/div&gt;" style="shape=rhombus;whiteSpace=wrap;html=1;align=center;spacing=2;spacingTop=-4;spacingLeft=0;spacingBottom=-1;fillColor=#fa6800;strokeColor=#C73500;fontColor=#000000;" parent="1" vertex="1">
                    <mxGeometry x="-720" y="280" width="120" height="80" as="geometry"/>
                </mxCell>
                <mxCell id="236" value="Rating" style="ellipse;whiteSpace=wrap;html=1;align=center;fontSize=15;" parent="1" vertex="1">
                    <mxGeometry x="-700" y="400" width="80" height="40" as="geometry"/>
                </mxCell>
                <mxCell id="237" value="CreatedAt" style="ellipse;whiteSpace=wrap;html=1;align=center;fontSize=15;" parent="1" vertex="1">
                    <mxGeometry x="-560" y="360" width="80" height="40" as="geometry"/>
                </mxCell>
                <mxCell id="238" value="UpdatedAt" style="ellipse;whiteSpace=wrap;html=1;align=center;fontSize=15;" parent="1" vertex="1">
                    <mxGeometry x="-840" y="360" width="80" height="40" as="geometry"/>
                </mxCell>
                <mxCell id="239" value="&lt;font&gt;id&lt;/font&gt;" style="ellipse;whiteSpace=wrap;html=1;align=center;fontStyle=4;fontSize=22;" parent="1" vertex="1">
                    <mxGeometry x="-700" y="200" width="80" height="40" as="geometry"/>
                </mxCell>
                <mxCell id="240" value="" style="endArrow=none;html=1;rounded=0;exitX=0.5;exitY=1;exitDx=0;exitDy=0;entryX=0;entryY=0.5;entryDx=0;entryDy=0;" parent="1" source="235" target="237" edge="1">
                    <mxGeometry relative="1" as="geometry">
                        <mxPoint x="-610" y="370" as="sourcePoint"/>
                        <mxPoint x="-570" y="410" as="targetPoint"/>
                        <Array as="points">
                            <mxPoint x="-660" y="380"/>
                        </Array>
                    </mxGeometry>
                </mxCell>
                <mxCell id="241" value="" style="endArrow=none;html=1;rounded=0;exitX=0.5;exitY=1;exitDx=0;exitDy=0;entryX=1;entryY=0.5;entryDx=0;entryDy=0;" parent="1" source="235" target="238" edge="1">
                    <mxGeometry relative="1" as="geometry">
                        <mxPoint x="-790" y="360" as="sourcePoint"/>
                        <mxPoint x="-740" y="410" as="targetPoint"/>
                        <Array as="points">
                            <mxPoint x="-660" y="380"/>
                        </Array>
                    </mxGeometry>
                </mxCell>
                <mxCell id="242" value="" style="endArrow=none;html=1;rounded=0;exitX=0.5;exitY=1;exitDx=0;exitDy=0;entryX=0.5;entryY=0;entryDx=0;entryDy=0;" parent="1" source="235" target="236" edge="1">
                    <mxGeometry relative="1" as="geometry">
                        <mxPoint x="-640" y="390" as="sourcePoint"/>
                        <mxPoint x="-480" y="390" as="targetPoint"/>
                        <Array as="points"/>
                    </mxGeometry>
                </mxCell>
                <mxCell id="243" value="" style="endArrow=none;html=1;rounded=0;exitX=0.5;exitY=0;exitDx=0;exitDy=0;entryX=0.5;entryY=1;entryDx=0;entryDy=0;" parent="1" source="235" target="239" edge="1">
                    <mxGeometry relative="1" as="geometry">
                        <mxPoint x="-580" y="290" as="sourcePoint"/>
                        <mxPoint x="-640" y="250" as="targetPoint"/>
                    </mxGeometry>
                </mxCell>
                <mxCell id="254" value="UserBook&lt;br&gt;Rating" style="shape=rhombus;whiteSpace=wrap;html=1;align=center;spacing=2;spacingTop=-4;spacingLeft=0;spacingBottom=-1;fillColor=#fa6800;strokeColor=#C73500;fontColor=#000000;" parent="1" vertex="1">
                    <mxGeometry x="-720" y="-280" width="120" height="80" as="geometry"/>
                </mxCell>
                <mxCell id="255" value="Rating" style="ellipse;whiteSpace=wrap;html=1;align=center;fontSize=15;" parent="1" vertex="1">
                    <mxGeometry x="-700" y="-160" width="80" height="40" as="geometry"/>
                </mxCell>
                <mxCell id="256" value="CreatedAt" style="ellipse;whiteSpace=wrap;html=1;align=center;fontSize=15;" parent="1" vertex="1">
                    <mxGeometry x="-560" y="-200" width="80" height="40" as="geometry"/>
                </mxCell>
                <mxCell id="257" value="UpdatedAt" style="ellipse;whiteSpace=wrap;html=1;align=center;fontSize=15;" parent="1" vertex="1">
                    <mxGeometry x="-840" y="-200" width="80" height="40" as="geometry"/>
                </mxCell>
                <mxCell id="258" value="&lt;font&gt;id&lt;/font&gt;" style="ellipse;whiteSpace=wrap;html=1;align=center;fontStyle=4;fontSize=22;" parent="1" vertex="1">
                    <mxGeometry x="-700" y="-360" width="80" height="40" as="geometry"/>
                </mxCell>
                <mxCell id="259" value="" style="endArrow=none;html=1;rounded=0;exitX=0.5;exitY=1;exitDx=0;exitDy=0;entryX=0;entryY=0.5;entryDx=0;entryDy=0;" parent="1" source="254" target="256" edge="1">
                    <mxGeometry relative="1" as="geometry">
                        <mxPoint x="-610" y="-190" as="sourcePoint"/>
                        <mxPoint x="-600" y="-180" as="targetPoint"/>
                        <Array as="points">
                            <mxPoint x="-660" y="-180"/>
                        </Array>
                    </mxGeometry>
                </mxCell>
                <mxCell id="260" value="" style="endArrow=none;html=1;rounded=0;exitX=0.5;exitY=1;exitDx=0;exitDy=0;entryX=1;entryY=0.5;entryDx=0;entryDy=0;" parent="1" source="254" target="257" edge="1">
                    <mxGeometry relative="1" as="geometry">
                        <mxPoint x="-790" y="-200" as="sourcePoint"/>
                        <mxPoint x="-750" y="-150" as="targetPoint"/>
                        <Array as="points">
                            <mxPoint x="-660" y="-180"/>
                        </Array>
                    </mxGeometry>
                </mxCell>
                <mxCell id="261" value="" style="endArrow=none;html=1;rounded=0;exitX=0.5;exitY=1;exitDx=0;exitDy=0;entryX=0.5;entryY=0;entryDx=0;entryDy=0;" parent="1" source="254" target="255" edge="1">
                    <mxGeometry relative="1" as="geometry">
                        <mxPoint x="-640" y="-170" as="sourcePoint"/>
                        <mxPoint x="-480" y="-170" as="targetPoint"/>
                        <Array as="points"/>
                    </mxGeometry>
                </mxCell>
                <mxCell id="262" value="" style="endArrow=none;html=1;rounded=0;exitX=0.5;exitY=0;exitDx=0;exitDy=0;entryX=0.5;entryY=1;entryDx=0;entryDy=0;" parent="1" source="254" target="258" edge="1">
                    <mxGeometry relative="1" as="geometry">
                        <mxPoint x="-580" y="-270" as="sourcePoint"/>
                        <mxPoint x="-640" y="-310" as="targetPoint"/>
                    </mxGeometry>
                </mxCell>
                <mxCell id="263" value="" style="edgeStyle=entityRelationEdgeStyle;fontSize=12;html=1;endArrow=ERmany;startArrow=ERmany;fillColor=#e51400;strokeColor=#B20000;entryX=0;entryY=0.5;entryDx=0;entryDy=0;exitX=0.75;exitY=0;exitDx=0;exitDy=0;" parent="1" source="105" target="235" edge="1">
                    <mxGeometry width="100" height="100" relative="1" as="geometry">
                        <mxPoint x="-1080" y="330" as="sourcePoint"/>
                        <mxPoint x="-710" y="890" as="targetPoint"/>
                        <Array as="points">
                            <mxPoint x="-845" y="570"/>
                            <mxPoint x="-445" y="730"/>
                            <mxPoint x="-965" y="660"/>
                            <mxPoint x="-1025" y="670"/>
                        </Array>
                    </mxGeometry>
                </mxCell>
                <mxCell id="264" value="" style="edgeStyle=entityRelationEdgeStyle;fontSize=12;html=1;endArrow=ERmany;startArrow=ERmany;fillColor=#e51400;strokeColor=#B20000;entryX=0;entryY=0.5;entryDx=0;entryDy=0;exitX=0.75;exitY=0;exitDx=0;exitDy=0;" parent="1" source="105" target="254" edge="1">
                    <mxGeometry width="100" height="100" relative="1" as="geometry">
                        <mxPoint x="-1030" y="490" as="sourcePoint"/>
                        <mxPoint x="-710" y="610" as="targetPoint"/>
                        <Array as="points">
                            <mxPoint x="-835" y="580"/>
                            <mxPoint x="-435" y="740"/>
                            <mxPoint x="-955" y="670"/>
                            <mxPoint x="-1015" y="680"/>
                        </Array>
                    </mxGeometry>
                </mxCell>
                <mxCell id="265" value="" style="edgeStyle=entityRelationEdgeStyle;fontSize=12;html=1;endArrow=ERmany;startArrow=ERmany;fillColor=#e51400;strokeColor=#B20000;entryX=0;entryY=0.75;entryDx=0;entryDy=0;exitX=1;exitY=0.5;exitDx=0;exitDy=0;" parent="1" source="235" target="182" edge="1">
                    <mxGeometry width="100" height="100" relative="1" as="geometry">
                        <mxPoint x="-440" y="870" as="sourcePoint"/>
                        <mxPoint x="-120" y="1150" as="targetPoint"/>
                        <Array as="points">
                            <mxPoint x="-245" y="1120"/>
                            <mxPoint x="155" y="1280"/>
                            <mxPoint x="-365" y="1210"/>
                            <mxPoint x="-425" y="1220"/>
                        </Array>
                    </mxGeometry>
                </mxCell>
                <mxCell id="268" value="" style="edgeStyle=entityRelationEdgeStyle;fontSize=12;html=1;endArrow=ERmany;startArrow=ERmany;fillColor=#e51400;strokeColor=#B20000;exitX=0;exitY=0.5;exitDx=0;exitDy=0;entryX=1;entryY=0.75;entryDx=0;entryDy=0;" parent="1" source="209" target="182" edge="1">
                    <mxGeometry width="100" height="100" relative="1" as="geometry">
                        <mxPoint x="-590" y="330" as="sourcePoint"/>
                        <mxPoint x="-50" y="120" as="targetPoint"/>
                        <Array as="points">
                            <mxPoint x="-235" y="1130"/>
                            <mxPoint x="165" y="1290"/>
                            <mxPoint x="-355" y="1220"/>
                            <mxPoint x="-415" y="1230"/>
                        </Array>
                    </mxGeometry>
                </mxCell>
                <mxCell id="270" value="" style="edgeStyle=entityRelationEdgeStyle;fontSize=12;html=1;endArrow=ERmany;startArrow=ERmany;fillColor=#e51400;strokeColor=#B20000;entryX=1;entryY=0.25;entryDx=0;entryDy=0;exitX=0;exitY=0.5;exitDx=0;exitDy=0;" parent="1" source="214" target="182" edge="1">
                    <mxGeometry width="100" height="100" relative="1" as="geometry">
                        <mxPoint x="30" y="60" as="sourcePoint"/>
                        <mxPoint x="-100" y="130" as="targetPoint"/>
                        <Array as="points">
                            <mxPoint x="-220" y="1270"/>
                            <mxPoint x="180" y="1430"/>
                            <mxPoint x="-340" y="1360"/>
                            <mxPoint x="-400" y="1370"/>
                        </Array>
                    </mxGeometry>
                </mxCell>
                <mxCell id="272" value="" style="endArrow=none;html=1;rounded=0;exitX=0.5;exitY=1;exitDx=0;exitDy=0;entryX=0.5;entryY=1;entryDx=0;entryDy=0;" parent="1" source="94" target="111" edge="1">
                    <mxGeometry relative="1" as="geometry">
                        <mxPoint x="-1450" y="310" as="sourcePoint"/>
                        <mxPoint x="-1290" y="310" as="targetPoint"/>
                        <Array as="points">
                            <mxPoint x="-1640" y="240"/>
                            <mxPoint x="-1120" y="240"/>
                        </Array>
                    </mxGeometry>
                </mxCell>
                <mxCell id="273" value="" style="edgeStyle=entityRelationEdgeStyle;fontSize=12;html=1;endArrow=ERmany;startArrow=ERmany;fillColor=#e51400;strokeColor=#B20000;entryX=1;entryY=0.5;entryDx=0;entryDy=0;exitX=0.5;exitY=1;exitDx=0;exitDy=0;" parent="1" source="219" target="65" edge="1">
                    <mxGeometry width="100" height="100" relative="1" as="geometry">
                        <mxPoint x="670" y="-250" as="sourcePoint"/>
                        <mxPoint x="570" y="-120" as="targetPoint"/>
                        <Array as="points">
                            <mxPoint x="300" y="1180"/>
                            <mxPoint x="655" y="210"/>
                            <mxPoint x="700" y="1340"/>
                            <mxPoint x="180" y="1270"/>
                            <mxPoint x="120" y="1280"/>
                        </Array>
                    </mxGeometry>
                </mxCell>
                <mxCell id="274" value="" style="edgeStyle=entityRelationEdgeStyle;fontSize=12;html=1;endArrow=ERmany;startArrow=ERmany;fillColor=#e51400;strokeColor=#B20000;exitX=1;exitY=0.5;exitDx=0;exitDy=0;entryX=0.5;entryY=0;entryDx=0;entryDy=0;" parent="1" source="17" target="219" edge="1">
                    <mxGeometry width="100" height="100" relative="1" as="geometry">
                        <mxPoint x="760" y="-550" as="sourcePoint"/>
                        <mxPoint x="660" y="-350" as="targetPoint"/>
                        <Array as="points">
                            <mxPoint x="390" y="880"/>
                            <mxPoint x="745" y="-90"/>
                            <mxPoint x="790" y="1040"/>
                            <mxPoint x="270" y="970"/>
                            <mxPoint x="210" y="980"/>
                        </Array>
                    </mxGeometry>
                </mxCell>
                <mxCell id="277" value="" style="edgeStyle=entityRelationEdgeStyle;fontSize=12;html=1;endArrow=ERmany;startArrow=ERmany;fillColor=#e51400;strokeColor=#B20000;entryX=0;entryY=0.5;entryDx=0;entryDy=0;exitX=0.75;exitY=1;exitDx=0;exitDy=0;" parent="1" source="182" target="213" edge="1">
                    <mxGeometry width="100" height="100" relative="1" as="geometry">
                        <mxPoint x="330" y="630" as="sourcePoint"/>
                        <mxPoint x="170" y="250" as="targetPoint"/>
                        <Array as="points">
                            <mxPoint x="-265" y="1500"/>
                            <mxPoint x="90" y="530"/>
                            <mxPoint x="135" y="1660"/>
                            <mxPoint x="-385" y="1590"/>
                            <mxPoint x="-445" y="1600"/>
                        </Array>
                    </mxGeometry>
                </mxCell>
                <mxCell id="283" value="" style="edgeStyle=entityRelationEdgeStyle;fontSize=12;html=1;endArrow=ERmany;startArrow=ERmany;fillColor=#e51400;strokeColor=#B20000;entryX=0;entryY=0.75;entryDx=0;entryDy=0;exitX=1;exitY=0.5;exitDx=0;exitDy=0;" parent="1" source="211" target="40" edge="1">
                    <mxGeometry width="100" height="100" relative="1" as="geometry">
                        <mxPoint x="-590" y="90" as="sourcePoint"/>
                        <mxPoint x="-220" y="-70" as="targetPoint"/>
                        <Array as="points">
                            <mxPoint x="-355" y="450"/>
                            <mxPoint x="45" y="610"/>
                            <mxPoint x="-475" y="540"/>
                            <mxPoint x="-535" y="550"/>
                        </Array>
                    </mxGeometry>
                </mxCell>
                <mxCell id="284" value="" style="edgeStyle=entityRelationEdgeStyle;fontSize=12;html=1;endArrow=ERmany;startArrow=ERmany;fillColor=#e51400;strokeColor=#B20000;entryX=0;entryY=0.75;entryDx=0;entryDy=0;exitX=1;exitY=0.5;exitDx=0;exitDy=0;" parent="1" source="254" target="130" edge="1">
                    <mxGeometry width="100" height="100" relative="1" as="geometry">
                        <mxPoint x="-920" y="-290" as="sourcePoint"/>
                        <mxPoint x="-550" y="-730" as="targetPoint"/>
                        <Array as="points">
                            <mxPoint x="-665" y="90"/>
                            <mxPoint x="-265" y="250"/>
                            <mxPoint x="-785" y="180"/>
                            <mxPoint x="-845" y="190"/>
                        </Array>
                    </mxGeometry>
                </mxCell>
                <mxCell id="285" value="" style="edgeStyle=entityRelationEdgeStyle;fontSize=12;html=1;endArrow=ERmany;startArrow=ERmany;fillColor=#1ba1e2;strokeColor=#006EAF;entryX=0;entryY=0.75;entryDx=0;entryDy=0;exitX=1;exitY=0.5;exitDx=0;exitDy=0;" parent="1" source="213" target="84" edge="1">
                    <mxGeometry width="100" height="100" relative="1" as="geometry">
                        <mxPoint x="330" y="330" as="sourcePoint"/>
                        <mxPoint x="540" y="450" as="targetPoint"/>
                        <Array as="points">
                            <mxPoint x="235" y="1710"/>
                            <mxPoint x="590" y="740"/>
                            <mxPoint x="635" y="1870"/>
                            <mxPoint x="115" y="1800"/>
                            <mxPoint x="55" y="1810"/>
                        </Array>
                    </mxGeometry>
                </mxCell>
                <mxCell id="286" value="" style="edgeStyle=entityRelationEdgeStyle;fontSize=12;html=1;endArrow=ERmany;startArrow=ERmany;fillColor=#1ba1e2;strokeColor=#006EAF;entryX=0;entryY=0.5;entryDx=0;entryDy=0;exitX=1;exitY=0.5;exitDx=0;exitDy=0;" parent="1" source="210" target="84" edge="1">
                    <mxGeometry width="100" height="100" relative="1" as="geometry">
                        <mxPoint x="180" y="-145" as="sourcePoint"/>
                        <mxPoint x="380" y="-135" as="targetPoint"/>
                        <Array as="points">
                            <mxPoint x="255" y="1325"/>
                            <mxPoint x="610" y="355"/>
                            <mxPoint x="655" y="1485"/>
                            <mxPoint x="135" y="1415"/>
                            <mxPoint x="75" y="1425"/>
                        </Array>
                    </mxGeometry>
                </mxCell>
                <mxCell id="287" value="" style="edgeStyle=entityRelationEdgeStyle;fontSize=12;html=1;endArrow=ERmany;startArrow=ERmany;fillColor=#1ba1e2;strokeColor=#006EAF;entryX=0;entryY=0.25;entryDx=0;entryDy=0;exitX=1;exitY=0.5;exitDx=0;exitDy=0;" parent="1" source="216" target="84" edge="1">
                    <mxGeometry width="100" height="100" relative="1" as="geometry">
                        <mxPoint x="170" y="-150" as="sourcePoint"/>
                        <mxPoint x="370" y="230" as="targetPoint"/>
                        <Array as="points">
                            <mxPoint x="265" y="1335"/>
                            <mxPoint x="620" y="365"/>
                            <mxPoint x="665" y="1495"/>
                            <mxPoint x="145" y="1425"/>
                            <mxPoint x="85" y="1435"/>
                        </Array>
                    </mxGeometry>
                </mxCell>
                <mxCell id="288" value="" style="edgeStyle=entityRelationEdgeStyle;fontSize=12;html=1;endArrow=ERmany;startArrow=ERmany;fillColor=#60a917;strokeColor=#2D7600;entryX=0;entryY=0.75;entryDx=0;entryDy=0;exitX=1;exitY=0.5;exitDx=0;exitDy=0;" parent="1" source="214" target="65" edge="1">
                    <mxGeometry width="100" height="100" relative="1" as="geometry">
                        <mxPoint x="170" y="310" as="sourcePoint"/>
                        <mxPoint x="370" y="320" as="targetPoint"/>
                        <Array as="points">
                            <mxPoint x="245" y="1780"/>
                            <mxPoint x="600" y="810"/>
                            <mxPoint x="645" y="1940"/>
                            <mxPoint x="125" y="1870"/>
                            <mxPoint x="65" y="1880"/>
                        </Array>
                    </mxGeometry>
                </mxCell>
                <mxCell id="289" value="" style="edgeStyle=entityRelationEdgeStyle;fontSize=12;html=1;endArrow=ERmany;startArrow=ERmany;fillColor=#60a917;strokeColor=#2D7600;entryX=0;entryY=0.5;entryDx=0;entryDy=0;exitX=1;exitY=0.5;exitDx=0;exitDy=0;" parent="1" source="212" target="65" edge="1">
                    <mxGeometry width="100" height="100" relative="1" as="geometry">
                        <mxPoint x="170" y="10" as="sourcePoint"/>
                        <mxPoint x="370" y="-100" as="targetPoint"/>
                        <Array as="points">
                            <mxPoint x="255" y="1790"/>
                            <mxPoint x="610" y="820"/>
                            <mxPoint x="655" y="1950"/>
                            <mxPoint x="135" y="1880"/>
                            <mxPoint x="75" y="1890"/>
                        </Array>
                    </mxGeometry>
                </mxCell>
                <mxCell id="290" value="" style="edgeStyle=entityRelationEdgeStyle;fontSize=12;html=1;endArrow=ERmany;startArrow=ERmany;fillColor=#60a917;strokeColor=#2D7600;entryX=0;entryY=0.25;entryDx=0;entryDy=0;exitX=1;exitY=0.5;exitDx=0;exitDy=0;" parent="1" source="217" target="65" edge="1">
                    <mxGeometry width="100" height="100" relative="1" as="geometry">
                        <mxPoint x="170" y="-390" as="sourcePoint"/>
                        <mxPoint x="370" y="-130" as="targetPoint"/>
                        <Array as="points">
                            <mxPoint x="265" y="1800"/>
                            <mxPoint x="620" y="830"/>
                            <mxPoint x="665" y="1960"/>
                            <mxPoint x="145" y="1890"/>
                            <mxPoint x="85" y="1900"/>
                        </Array>
                    </mxGeometry>
                </mxCell>
                <mxCell id="291" value="" style="edgeStyle=entityRelationEdgeStyle;fontSize=12;html=1;endArrow=ERmany;startArrow=ERmany;fillColor=#1ba1e2;strokeColor=light-dark(#006EAF,#CC0000);entryX=0;entryY=0.25;entryDx=0;entryDy=0;exitX=1;exitY=0.5;exitDx=0;exitDy=0;" parent="1" source="208" target="17" edge="1">
                    <mxGeometry width="100" height="100" relative="1" as="geometry">
                        <mxPoint x="170" y="-670" as="sourcePoint"/>
                        <mxPoint x="370" y="200" as="targetPoint"/>
                        <Array as="points">
                            <mxPoint x="275" y="1345"/>
                            <mxPoint x="630" y="375"/>
                            <mxPoint x="675" y="1505"/>
                            <mxPoint x="155" y="1435"/>
                            <mxPoint x="95" y="1445"/>
                        </Array>
                    </mxGeometry>
                </mxCell>
                <mxCell id="292" value="" style="edgeStyle=entityRelationEdgeStyle;fontSize=12;html=1;endArrow=ERmany;startArrow=ERmany;fillColor=#1ba1e2;strokeColor=light-dark(#006EAF,#CC0000);exitX=1;exitY=0.5;exitDx=0;exitDy=0;entryX=0;entryY=0.75;entryDx=0;entryDy=0;" parent="1" source="209" target="17" edge="1">
                    <mxGeometry width="100" height="100" relative="1" as="geometry">
                        <mxPoint x="170" y="-270" as="sourcePoint"/>
                        <mxPoint x="350" y="-410" as="targetPoint"/>
                        <Array as="points">
                            <mxPoint x="285" y="1355"/>
                            <mxPoint x="640" y="385"/>
                            <mxPoint x="685" y="1515"/>
                            <mxPoint x="165" y="1445"/>
                            <mxPoint x="105" y="1455"/>
                        </Array>
                    </mxGeometry>
                </mxCell>
                <mxCell id="293" value="" style="edgeStyle=entityRelationEdgeStyle;fontSize=12;html=1;endArrow=ERmany;startArrow=ERmany;fillColor=#e51400;strokeColor=#B20000;entryX=0.75;entryY=1;entryDx=0;entryDy=0;exitX=0;exitY=0.5;exitDx=0;exitDy=0;" parent="1" source="210" target="40" edge="1">
                    <mxGeometry width="100" height="100" relative="1" as="geometry">
                        <mxPoint x="50" y="10" as="sourcePoint"/>
                        <mxPoint x="-110" y="40" as="targetPoint"/>
                        <Array as="points">
                            <mxPoint x="-210" y="1280"/>
                            <mxPoint x="190" y="1440"/>
                            <mxPoint x="-330" y="1370"/>
                            <mxPoint x="-390" y="1380"/>
                        </Array>
                    </mxGeometry>
                </mxCell>
                <mxCell id="294" value="" style="edgeStyle=entityRelationEdgeStyle;fontSize=12;html=1;endArrow=ERmany;startArrow=ERmany;fillColor=#e51400;strokeColor=#B20000;entryX=1;entryY=0.5;entryDx=0;entryDy=0;exitX=0;exitY=0.5;exitDx=0;exitDy=0;" parent="1" source="208" target="40" edge="1">
                    <mxGeometry width="100" height="100" relative="1" as="geometry">
                        <mxPoint x="50" y="-150" as="sourcePoint"/>
                        <mxPoint x="-110" y="-260" as="targetPoint"/>
                        <Array as="points">
                            <mxPoint x="-200" y="1290"/>
                            <mxPoint x="200" y="1450"/>
                            <mxPoint x="-320" y="1380"/>
                            <mxPoint x="-380" y="1390"/>
                        </Array>
                    </mxGeometry>
                </mxCell>
                <mxCell id="295" value="" style="edgeStyle=entityRelationEdgeStyle;fontSize=12;html=1;endArrow=ERmany;startArrow=ERmany;fillColor=#e51400;strokeColor=#B20000;entryX=0.75;entryY=0;entryDx=0;entryDy=0;exitX=0;exitY=0.5;exitDx=0;exitDy=0;" parent="1" source="212" target="40" edge="1">
                    <mxGeometry width="100" height="100" relative="1" as="geometry">
                        <mxPoint x="50" y="-150" as="sourcePoint"/>
                        <mxPoint x="-110" y="-260" as="targetPoint"/>
                        <Array as="points">
                            <mxPoint x="-200" y="1290"/>
                            <mxPoint x="200" y="1450"/>
                            <mxPoint x="-320" y="1380"/>
                            <mxPoint x="-380" y="1390"/>
                        </Array>
                    </mxGeometry>
                </mxCell>
                <mxCell id="296" value="" style="edgeStyle=entityRelationEdgeStyle;fontSize=12;html=1;endArrow=ERmany;startArrow=ERmany;fillColor=#e51400;strokeColor=#B20000;entryX=1;entryY=0.5;entryDx=0;entryDy=0;exitX=0;exitY=0.5;exitDx=0;exitDy=0;" parent="1" source="217" target="130" edge="1">
                    <mxGeometry width="100" height="100" relative="1" as="geometry">
                        <mxPoint x="50" y="10" as="sourcePoint"/>
                        <mxPoint x="-110" y="40" as="targetPoint"/>
                        <Array as="points">
                            <mxPoint x="-210" y="1280"/>
                            <mxPoint x="190" y="1440"/>
                            <mxPoint x="-330" y="1370"/>
                            <mxPoint x="-390" y="1380"/>
                        </Array>
                    </mxGeometry>
                </mxCell>
                <mxCell id="297" value="" style="edgeStyle=entityRelationEdgeStyle;fontSize=12;html=1;endArrow=ERmany;startArrow=ERmany;fillColor=#e51400;strokeColor=#B20000;entryX=1;entryY=0;entryDx=0;entryDy=0;exitX=0;exitY=0.5;exitDx=0;exitDy=0;" parent="1" source="216" target="130" edge="1">
                    <mxGeometry width="100" height="100" relative="1" as="geometry">
                        <mxPoint x="50" y="-550" as="sourcePoint"/>
                        <mxPoint x="-110" y="-570" as="targetPoint"/>
                        <Array as="points">
                            <mxPoint x="-200" y="1290"/>
                            <mxPoint x="200" y="1450"/>
                            <mxPoint x="-320" y="1380"/>
                            <mxPoint x="-380" y="1390"/>
                        </Array>
                    </mxGeometry>
                </mxCell>
                <mxCell id="298" value="" style="endArrow=none;html=1;rounded=0;exitX=0.5;exitY=1;exitDx=0;exitDy=0;entryX=0;entryY=0.5;entryDx=0;entryDy=0;" parent="1" source="82" target="134" edge="1">
                    <mxGeometry relative="1" as="geometry">
                        <mxPoint x="-680" y="-530" as="sourcePoint"/>
                        <mxPoint x="-520" y="-530" as="targetPoint"/>
                        <Array as="points">
                            <mxPoint x="-660" y="-620"/>
                        </Array>
                    </mxGeometry>
                </mxCell>
                <mxCell id="299" value="" style="endArrow=none;html=1;rounded=0;exitX=0.5;exitY=1;exitDx=0;exitDy=0;entryX=0.5;entryY=1;entryDx=0;entryDy=0;" parent="1" source="82" target="47" edge="1">
                    <mxGeometry relative="1" as="geometry">
                        <mxPoint x="-720" y="-550" as="sourcePoint"/>
                        <mxPoint x="-560" y="-550" as="targetPoint"/>
                        <Array as="points">
                            <mxPoint x="-660" y="-620"/>
                            <mxPoint x="-480" y="-620"/>
                            <mxPoint x="-480" y="-120"/>
                            <mxPoint x="-160" y="-120"/>
                        </Array>
                    </mxGeometry>
                </mxCell>
                <mxCell id="300" value="" style="endArrow=none;html=1;rounded=0;exitX=0.5;exitY=1;exitDx=0;exitDy=0;entryX=0;entryY=0.5;entryDx=0;entryDy=0;" parent="1" source="82" target="193" edge="1">
                    <mxGeometry relative="1" as="geometry">
                        <mxPoint x="-780" y="-520" as="sourcePoint"/>
                        <mxPoint x="-270" y="250" as="targetPoint"/>
                        <Array as="points">
                            <mxPoint x="-660" y="-620"/>
                            <mxPoint x="-480" y="-620"/>
                            <mxPoint x="-480" y="180"/>
                        </Array>
                    </mxGeometry>
                </mxCell>
                <mxCell id="306" value="Title" style="ellipse;whiteSpace=wrap;html=1;align=center;fontSize=15;" parent="1" vertex="1">
                    <mxGeometry x="-780" y="-160" width="80" height="40" as="geometry"/>
                </mxCell>
                <mxCell id="307" value="Content" style="ellipse;whiteSpace=wrap;html=1;align=center;fontSize=15;" parent="1" vertex="1">
                    <mxGeometry x="-620" y="-160" width="80" height="40" as="geometry"/>
                </mxCell>
                <mxCell id="308" value="Content" style="ellipse;whiteSpace=wrap;html=1;align=center;fontSize=15;" parent="1" vertex="1">
                    <mxGeometry x="-620" y="120" width="80" height="40" as="geometry"/>
                </mxCell>
                <mxCell id="309" value="Content" style="ellipse;whiteSpace=wrap;html=1;align=center;fontSize=15;" parent="1" vertex="1">
                    <mxGeometry x="-620" y="400" width="80" height="40" as="geometry"/>
                </mxCell>
                <mxCell id="310" value="Title" style="ellipse;whiteSpace=wrap;html=1;align=center;fontSize=15;" parent="1" vertex="1">
                    <mxGeometry x="-780" y="120" width="80" height="40" as="geometry"/>
                </mxCell>
                <mxCell id="311" value="Title" style="ellipse;whiteSpace=wrap;html=1;align=center;fontSize=15;" parent="1" vertex="1">
                    <mxGeometry x="-780" y="400" width="80" height="40" as="geometry"/>
                </mxCell>
                <mxCell id="314" value="" style="endArrow=none;html=1;rounded=0;exitX=0.5;exitY=0;exitDx=0;exitDy=0;entryX=0.5;entryY=1;entryDx=0;entryDy=0;" parent="1" source="306" target="254" edge="1">
                    <mxGeometry relative="1" as="geometry">
                        <mxPoint x="-790" y="-60" as="sourcePoint"/>
                        <mxPoint x="-630" y="-60" as="targetPoint"/>
                        <Array as="points">
                            <mxPoint x="-740" y="-180"/>
                            <mxPoint x="-660" y="-180"/>
                        </Array>
                    </mxGeometry>
                </mxCell>
                <mxCell id="315" value="" style="endArrow=none;html=1;rounded=0;exitX=0.5;exitY=1;exitDx=0;exitDy=0;entryX=0.5;entryY=0;entryDx=0;entryDy=0;" parent="1" source="254" target="307" edge="1">
                    <mxGeometry relative="1" as="geometry">
                        <mxPoint x="-520" y="-90" as="sourcePoint"/>
                        <mxPoint x="-360" y="-90" as="targetPoint"/>
                        <Array as="points">
                            <mxPoint x="-660" y="-180"/>
                            <mxPoint x="-580" y="-180"/>
                        </Array>
                    </mxGeometry>
                </mxCell>
                <mxCell id="316" value="" style="endArrow=none;html=1;rounded=0;exitX=0.5;exitY=1;exitDx=0;exitDy=0;entryX=0.5;entryY=0;entryDx=0;entryDy=0;" parent="1" source="211" target="308" edge="1">
                    <mxGeometry relative="1" as="geometry">
                        <mxPoint x="-790" y="190" as="sourcePoint"/>
                        <mxPoint x="-630" y="190" as="targetPoint"/>
                        <Array as="points">
                            <mxPoint x="-660" y="100"/>
                            <mxPoint x="-580" y="100"/>
                        </Array>
                    </mxGeometry>
                </mxCell>
                <mxCell id="317" value="" style="endArrow=none;html=1;rounded=0;exitX=0.5;exitY=1;exitDx=0;exitDy=0;entryX=0.5;entryY=0;entryDx=0;entryDy=0;" parent="1" source="211" target="310" edge="1">
                    <mxGeometry relative="1" as="geometry">
                        <mxPoint x="-800" y="200" as="sourcePoint"/>
                        <mxPoint x="-640" y="200" as="targetPoint"/>
                        <Array as="points">
                            <mxPoint x="-660" y="100"/>
                            <mxPoint x="-740" y="100"/>
                        </Array>
                    </mxGeometry>
                </mxCell>
                <mxCell id="318" value="" style="endArrow=none;html=1;rounded=0;exitX=0.5;exitY=0;exitDx=0;exitDy=0;entryX=0.5;entryY=1;entryDx=0;entryDy=0;" parent="1" source="311" target="235" edge="1">
                    <mxGeometry relative="1" as="geometry">
                        <mxPoint x="-860" y="490" as="sourcePoint"/>
                        <mxPoint x="-700" y="490" as="targetPoint"/>
                        <Array as="points">
                            <mxPoint x="-740" y="380"/>
                            <mxPoint x="-660" y="380"/>
                        </Array>
                    </mxGeometry>
                </mxCell>
                <mxCell id="319" value="" style="endArrow=none;html=1;rounded=0;exitX=0.5;exitY=1;exitDx=0;exitDy=0;entryX=0.5;entryY=0;entryDx=0;entryDy=0;" parent="1" source="235" target="309" edge="1">
                    <mxGeometry relative="1" as="geometry">
                        <mxPoint x="-700" y="520" as="sourcePoint"/>
                        <mxPoint x="-540" y="520" as="targetPoint"/>
                        <Array as="points">
                            <mxPoint x="-660" y="380"/>
                            <mxPoint x="-580" y="380"/>
                        </Array>
                    </mxGeometry>
                </mxCell>
            </root>
        </mxGraphModel>
    </diagram>
</mxfile>